<svg width="52" height="23" fill="none" xmlns="http://www.w3.org/2000/svg"><path fill-rule="evenodd" clip-rule="evenodd" d="M3.231 2.837h1.474v1.368H3.231v3.687c0 .346.057.576.17.691.114.116.34.173.68.173.114 0 .223-.005.327-.014a2.78 2.78 0 00.297-.043v1.584a4.75 4.75 0 01-.567.058c-.207.01-.41.014-.609.014-.312 0-.607-.022-.886-.065a2.067 2.067 0 01-.737-.252 1.325 1.325 0 01-.503-.533c-.123-.23-.184-.533-.184-.907V4.205H0V2.837h1.219V.605H3.23v2.232zM5.67 0h2.013v3.874h.042c.255-.432.581-.746.978-.943a2.605 2.605 0 011.162-.295c.539 0 .98.074 1.325.223.345.149.617.355.815.62.199.263.338.585.418.964.08.38.12.8.12 1.26v4.58H10.53V6.078c0-.615-.094-1.073-.283-1.376-.189-.302-.524-.453-1.006-.453-.548 0-.945.165-1.19.496-.247.332-.37.877-.37 1.635v3.903H5.67V0zm13.337 5.76c-.095-.518-.262-.911-.503-1.18-.241-.269-.607-.403-1.099-.403-.32 0-.588.055-.8.165a1.512 1.512 0 00-.78.929 2.39 2.39 0 00-.092.49h3.274zm-3.274 1.297c.028.663.194 1.143.496 1.44.302.298.737.447 1.304.447.406 0 .756-.104 1.049-.31.293-.206.472-.425.538-.655h1.772c-.284.893-.718 1.531-1.304 1.915-.586.384-1.294.576-2.126.576a4.127 4.127 0 01-1.559-.28 3.24 3.24 0 01-1.176-.8 3.609 3.609 0 01-.744-1.238 4.6 4.6 0 01-.262-1.585c0-.557.09-1.075.269-1.555.18-.48.434-.895.765-1.246a3.6 3.6 0 011.184-.828 3.742 3.742 0 011.523-.302c.624 0 1.167.122 1.63.367.463.245.843.574 1.14.986.298.413.513.884.646 1.412.132.528.18 1.08.141 1.656h-5.286zm10.856-2.852h-1.204V2.837h1.204v-.576c0-.662.203-1.205.61-1.627C27.604.21 28.218 0 29.04 0c.18 0 .36.007.539.022.18.014.354.026.524.036v1.526a6.086 6.086 0 00-.737-.043c-.274 0-.47.065-.588.194-.118.13-.177.348-.177.656v.446h1.389v1.368H28.6v6.078h-2.012V4.205zm4.62-1.368h2.013v7.446H31.21V2.837zm2.013-1.152H31.21V0h2.012v1.685zm1.588 1.152h1.913V4.22h.028a2.54 2.54 0 01.383-.641 2.52 2.52 0 01.553-.504c.208-.14.43-.247.666-.324.236-.077.482-.115.737-.115.132 0 .279.024.44.072v1.9a3.807 3.807 0 00-.724-.071c-.368 0-.68.062-.935.187s-.46.295-.617.511a2.065 2.065 0 00-.333.756c-.066.288-.099.6-.099.936v3.356H34.81V2.837zm7.072 5.027c0 .22.045.41.134.568a1.2 1.2 0 00.348.39c.141.1.304.175.489.222a2.16 2.16 0 001.02.023 1.48 1.48 0 00.425-.16.971.971 0 00.319-.287.765.765 0 00.128-.454c0-.307-.201-.538-.603-.691-.401-.154-.961-.308-1.68-.461a9.812 9.812 0 01-.857-.238 2.91 2.91 0 01-.744-.36 1.738 1.738 0 01-.524-.562c-.132-.225-.199-.501-.199-.828 0-.48.093-.873.277-1.18.184-.308.427-.55.73-.728a3.167 3.167 0 011.02-.374 6.196 6.196 0 011.162-.108c.397 0 .782.038 1.155.115.374.077.707.206 1 .389.292.182.536.425.73.727.193.302.309.684.347 1.145h-1.914c-.028-.394-.174-.66-.439-.8a1.982 1.982 0 00-.935-.208 3.42 3.42 0 00-.369.021 1.214 1.214 0 00-.361.094.746.746 0 00-.277.209.558.558 0 00-.113.367c0 .183.066.331.198.447.133.115.305.208.518.28.212.072.456.137.73.195.274.057.552.12.836.187.293.067.578.149.857.245s.527.223.744.382c.218.158.392.355.525.59.132.235.198.526.198.871 0 .49-.097.9-.29 1.232a2.346 2.346 0 01-.759.799 3.08 3.08 0 01-1.07.425 6.14 6.14 0 01-2.473-.007 3.263 3.263 0 01-1.084-.432 2.453 2.453 0 01-.78-.8c-.203-.33-.314-.746-.333-1.245h1.914zm8.603-5.027h1.474v1.368h-1.474v3.687c0 .346.056.576.17.691.113.116.34.173.68.173.113 0 .222-.005.326-.014a2.78 2.78 0 00.298-.043v1.584c-.17.029-.36.048-.567.058-.208.01-.411.014-.61.014a5.79 5.79 0 01-.885-.065 2.067 2.067 0 01-.738-.252 1.326 1.326 0 01-.503-.533c-.122-.23-.184-.533-.184-.907V4.205h-1.219V2.837h1.22V.605h2.012v2.232zM3.23 15.367h1.474v1.368H3.231v3.687c0 .345.057.576.17.691.114.115.34.173.68.173.114 0 .223-.005.327-.014.104-.01.203-.024.297-.044v1.585c-.17.028-.359.048-.567.057-.207.01-.41.015-.609.015-.312 0-.607-.022-.886-.065a2.067 2.067 0 01-.737-.252 1.325 1.325 0 01-.503-.533c-.123-.23-.184-.533-.184-.907v-4.393H0v-1.368h1.219v-2.233H3.23v2.233zm2.44-2.837h2.013v3.874h.042c.255-.432.581-.747.978-.944a2.606 2.606 0 011.162-.295c.539 0 .98.075 1.325.224.345.148.617.355.815.619.199.264.338.585.418.965.08.379.12.8.12 1.26v4.58H10.53v-4.206c0-.614-.094-1.073-.283-1.375-.189-.302-.524-.454-1.006-.454-.548 0-.945.166-1.19.497-.247.331-.37.876-.37 1.635v3.903H5.67V12.53zm13.337 5.76c-.095-.518-.262-.912-.503-1.18-.241-.27-.607-.404-1.099-.404-.32 0-.588.056-.8.166a1.512 1.512 0 00-.78.929 2.39 2.39 0 00-.092.49h3.274zm-3.274 1.297c.028.662.194 1.142.496 1.44.302.298.737.446 1.304.446.406 0 .756-.103 1.049-.31.293-.206.472-.424.538-.654h1.772c-.284.892-.718 1.53-1.304 1.915-.586.384-1.294.576-2.126.576a4.127 4.127 0 01-1.559-.28 3.24 3.24 0 01-1.176-.8 3.61 3.61 0 01-.744-1.239 4.6 4.6 0 01-.262-1.584c0-.557.09-1.075.269-1.555.18-.48.434-.896.765-1.246.33-.35.725-.627 1.184-.828a3.741 3.741 0 011.523-.303c.624 0 1.167.123 1.63.368.463.244.843.573 1.14.986.298.413.513.883.646 1.412.132.528.18 1.08.141 1.656h-5.286zm10.474-7.057h2.012v10.283h-2.012V12.53zm3.302 5.127c.028-.48.146-.879.354-1.195a2.43 2.43 0 01.794-.764 3.427 3.427 0 011.084-.41 6.07 6.07 0 011.212-.123c.368 0 .742.027 1.12.08a3.33 3.33 0 011.034.31c.312.153.567.366.765.64.199.274.298.636.298 1.087v3.875c0 .336.019.657.057.965.038.307.104.537.198.69h-2.04a2.967 2.967 0 01-.142-.72c-.322.337-.7.572-1.134.706a4.484 4.484 0 01-1.332.202 3.52 3.52 0 01-.978-.13 2.226 2.226 0 01-.794-.403 1.873 1.873 0 01-.532-.691c-.127-.279-.19-.61-.19-.994 0-.422.072-.77.219-1.044.146-.274.335-.492.567-.655.231-.163.496-.286.793-.368.298-.081.598-.146.9-.194.303-.048.6-.086.893-.115.293-.029.553-.072.78-.13.227-.057.406-.141.538-.252.133-.11.194-.271.185-.482 0-.221-.036-.396-.107-.526a.79.79 0 00-.283-.302 1.105 1.105 0 00-.411-.144 3.31 3.31 0 00-.503-.037c-.397 0-.709.087-.936.26-.227.173-.359.46-.397.864h-2.012zm4.649 1.512a.898.898 0 01-.32.18 3.18 3.18 0 01-.41.108c-.147.029-.3.053-.461.072-.16.02-.321.043-.482.072a3.59 3.59 0 00-.446.115 1.312 1.312 0 00-.383.195.922.922 0 00-.262.31 1.01 1.01 0 00-.1.474c0 .183.034.337.1.461a.77.77 0 00.27.296c.113.072.245.122.396.15.151.03.307.044.468.044.396 0 .704-.067.92-.201.218-.135.379-.296.483-.483a1.56 1.56 0 00.191-.569 3.95 3.95 0 00.035-.46v-.764zm4.918 1.224c0 .221.044.41.134.57.09.157.206.287.347.388.142.1.305.175.49.223a2.17 2.17 0 001.02.022 1.52 1.52 0 00.425-.159.971.971 0 00.319-.288.766.766 0 00.127-.453c0-.308-.2-.538-.602-.692-.401-.153-.961-.307-1.68-.46a9.806 9.806 0 01-.857-.238 2.909 2.909 0 01-.744-.36 1.74 1.74 0 01-.524-.562c-.133-.225-.199-.502-.199-.828 0-.48.092-.874.277-1.18.184-.308.427-.55.73-.728a3.168 3.168 0 011.02-.375 6.196 6.196 0 011.162-.108c.397 0 .782.039 1.155.116.373.076.707.206 1 .388.292.183.536.425.73.728.193.302.309.684.347 1.145h-1.914c-.028-.394-.175-.66-.44-.8a1.983 1.983 0 00-.934-.209 3.42 3.42 0 00-.369.022 1.21 1.21 0 00-.361.094.744.744 0 00-.277.209.558.558 0 00-.113.367c0 .182.066.331.198.446.133.116.305.21.518.281.212.072.456.137.73.194.273.058.552.12.836.188.293.067.578.149.857.245a2.8 2.8 0 01.744.381c.218.159.392.355.525.59.132.236.198.526.198.872 0 .49-.097.9-.29 1.231a2.348 2.348 0 01-.759.8 3.082 3.082 0 01-1.07.425 6.142 6.142 0 01-2.473-.008 3.262 3.262 0 01-1.084-.432 2.454 2.454 0 01-.78-.799c-.203-.331-.314-.747-.333-1.246h1.914zm8.39-5.026h1.474v1.368h-1.474v3.687c0 .345.056.576.17.691.113.115.34.173.68.173.114 0 .222-.005.326-.014a2.7 2.7 0 00.298-.044v1.585c-.17.028-.36.048-.567.057-.208.01-.411.015-.61.015-.311 0-.607-.022-.885-.065a2.067 2.067 0 01-.737-.252 1.325 1.325 0 01-.504-.533c-.122-.23-.184-.533-.184-.907v-4.393h-1.219v-1.368h1.22v-2.233h2.012v2.233zm2.31 5.228H52v2.218h-2.225v-2.218z" fill="#B6B6B6"/></svg>