<svg width="179" height="13" fill="none" xmlns="http://www.w3.org/2000/svg"><g opacity=".88"><path d="M19.972 12.072a3.048 3.048 0 01-1.74-.516c-.504-.344-.9-.836-1.188-1.476-.28-.648-.42-1.408-.42-2.28 0-.872.14-1.628.42-2.268.288-.648.684-1.144 1.188-1.488a3.048 3.048 0 011.74-.516c.648 0 1.224.172 1.728.516.512.344.912.84 1.2 1.488.288.64.432 1.396.432 2.268 0 .872-.144 1.632-.432 2.28-.288.64-.688 1.132-1.2 1.476a2.992 2.992 0 01-1.728.516zm0-.792c.488 0 .916-.136 1.284-.408.376-.272.668-.668.876-1.188.208-.52.312-1.148.312-1.884s-.104-1.364-.312-1.884c-.208-.52-.5-.916-.876-1.188a2.102 2.102 0 00-1.284-.408c-.488 0-.92.136-1.296.408-.368.272-.656.668-.864 1.188-.208.52-.312 1.148-.312 1.884s.104 1.364.312 1.884c.208.52.496.916.864 1.188.376.272.808.408 1.296.408zm11.053-.048V12h-5.892v-.612l3.492-3.42c.44-.432.736-.804.888-1.116.16-.32.24-.64.24-.96 0-.496-.172-.88-.516-1.152-.336-.28-.82-.42-1.452-.42-.984 0-1.748.312-2.292.936l-.612-.528a3.23 3.23 0 011.248-.888c.512-.208 1.088-.312 1.728-.312.856 0 1.532.204 2.028.612.504.4.756.952.756 1.656 0 .432-.096.848-.288 1.248-.192.4-.556.86-1.092 1.38l-2.856 2.808h4.62zm116.947.84a3.048 3.048 0 01-1.74-.516c-.504-.344-.9-.836-1.188-1.476-.28-.648-.42-1.408-.42-2.28 0-.872.14-1.628.42-2.268.288-.648.684-1.144 1.188-1.488a3.048 3.048 0 011.74-.516c.648 0 1.224.172 1.728.516.512.344.912.84 1.2 1.488.288.64.432 1.396.432 2.268 0 .872-.144 1.632-.432 2.28-.288.64-.688 1.132-1.2 1.476a2.992 2.992 0 01-1.728.516zm0-.792c.488 0 .916-.136 1.284-.408.376-.272.668-.668.876-1.188.208-.52.312-1.148.312-1.884s-.104-1.364-.312-1.884c-.208-.52-.5-.916-.876-1.188a2.102 2.102 0 00-1.284-.408c-.488 0-.92.136-1.296.408-.368.272-.656.668-.864 1.188-.208.52-.312 1.148-.312 1.884s.104 1.364.312 1.884c.208.52.496.916.864 1.188.376.272.808.408 1.296.408zm12.457-1.488h-1.68V12h-.864V9.792h-4.74v-.624l4.452-5.568h.96l-4.296 5.424h3.648V7.08h.84v1.944h1.68v.768z" fill="#fff"/><path fill="#fff" fill-opacity=".32" d="M44 7h88v1H44z"/><path fill="#fff" d="M44 7h37.222v1H44z"/><path d="M5 12L1 8l4-4m169 0l4 4-4 4" stroke="#fff" stroke-width=".75"/></g></svg>