<svg width="276" height="12" fill="none" xmlns="http://www.w3.org/2000/svg"><g opacity=".88"><path d="M19.619 11.055a2.725 2.725 0 01-1.573-.473c-.455-.323-.81-.777-1.067-1.364-.25-.587-.374-1.276-.374-2.068s.125-1.481.374-2.068c.257-.587.612-1.038 1.067-1.353a2.68 2.68 0 011.573-.484 2.63 2.63 0 011.562.484c.462.315.818.766 1.067 1.353.257.587.385 1.276.385 2.068s-.128 1.481-.385 2.068c-.25.587-.605 1.041-1.067 1.364a2.674 2.674 0 01-1.562.473zm0-.517c.484 0 .91-.132 1.276-.396.374-.271.664-.66.869-1.166.205-.513.308-1.122.308-1.826s-.103-1.309-.308-1.815c-.205-.513-.495-.902-.869-1.166a2.087 2.087 0 00-1.276-.407c-.484 0-.913.136-1.287.407-.367.264-.653.653-.858 1.166-.205.506-.308 1.111-.308 1.815s.103 1.313.308 1.826c.205.506.491.895.858 1.166.374.264.803.396 1.287.396zm10.012-.044V11h-5.29v-.396l3.255-3.234c.426-.425.712-.788.858-1.089.154-.308.232-.623.232-.946 0-.491-.17-.876-.506-1.155-.33-.279-.81-.418-1.442-.418-.483 0-.909.073-1.276.22-.359.147-.67.37-.934.671l-.396-.352a2.904 2.904 0 011.11-.781 4.088 4.088 0 011.54-.275c.756 0 1.357.183 1.805.55.447.367.67.862.67 1.485 0 .396-.088.774-.264 1.133-.175.36-.505.777-.99 1.254l-2.837 2.827h4.465zm215.988.561a2.724 2.724 0 01-1.573-.473c-.455-.323-.81-.777-1.067-1.364-.249-.587-.374-1.276-.374-2.068s.125-1.481.374-2.068c.257-.587.612-1.038 1.067-1.353a2.68 2.68 0 011.573-.484 2.63 2.63 0 011.562.484c.462.315.818.766 1.067 1.353.257.587.385 1.276.385 2.068s-.128 1.481-.385 2.068c-.249.587-.605 1.041-1.067 1.364a2.674 2.674 0 01-1.562.473zm0-.517c.484 0 .909-.132 1.276-.396.374-.271.664-.66.869-1.166.205-.513.308-1.122.308-1.826s-.103-1.309-.308-1.815c-.205-.513-.495-.902-.869-1.166a2.088 2.088 0 00-1.276-.407c-.484 0-.913.136-1.287.407-.367.264-.653.653-.858 1.166-.205.506-.308 1.111-.308 1.815s.103 1.313.308 1.826c.205.506.491.895.858 1.166.374.264.803.396 1.287.396zm11.31-1.672h-1.617V11h-.55V8.866h-4.389v-.407l4.18-5.159h.627l-4.103 5.071h3.696V6.49h.539v1.881h1.617v.495z" fill="#fff"/><path opacity=".32" fill="#fff" d="M44 7h186v1H44z"/><path fill="#fff" d="M44 7h89.913v1H44z"/><path d="M5 11L1 7l4-4m266 0l4 4-4 4" stroke="#fff" stroke-width=".75"/></g></svg>