<svg width="88" height="318" fill="none" xmlns="http://www.w3.org/2000/svg"><path d="M28.592 300.496l.455.207.001-.002-.456-.205zm11.456-3.392l.272-.419-.003-.003-.269.422zm2.816 3.392l.458-.202-.002-.003-.456.205zm.96 9.664h-.5v.5h.5v-.5zm6.176 0h.5v-.5H50v.5zm0 5.184v.5h.5v-.5H50zm-22.4 0h-.5v.5h.5v-.5zm11.008-12.96l.388-.316-.006-.006-.382.322zm-5.76 0l.383.322.004-.006-.387-.316zm-1.024 7.776h-.5v.5h.5v-.5zm7.776 0v.5h.5v-.5h-.5zm-11.5-4.512c0-1.929.322-3.573.947-4.945l-.91-.414c-.697 1.529-1.037 3.32-1.037 5.359h1zm.948-4.947c.627-1.395 1.506-2.446 2.632-3.178l-.544-.838c-1.306.847-2.304 2.057-3 3.606l.912.41zm2.632-3.178c1.124-.729 2.466-1.103 4.048-1.103v-1c-1.746 0-3.284.415-4.592 1.265l.544.838zm4.048-1.103c1.56 0 2.903.373 4.051 1.106l.538-.844c-1.327-.846-2.863-1.262-4.589-1.262v1zm4.048 1.103c1.126.732 2.005 1.783 2.632 3.178l.912-.41c-.696-1.549-1.694-2.759-3-3.606l-.544.838zm2.63 3.175c.606 1.373.918 3.019.918 4.95h1c0-2.037-.328-3.826-1.002-5.354l-.916.404zm.918 4.95v4.512h1v-4.512h-1zm.5 5.012H50v-1h-6.176v1zm5.676-.5v5.184h1v-5.184h-1zm.5 4.684H27.6v1H50v-1zm-21.9.5v-9.696h-1v9.696h1zm12-9.408c0-1.618-.342-2.934-1.105-3.868l-.774.632c.56.687.879 1.74.879 3.236h1zm-1.11-3.874c-.794-.943-1.905-1.394-3.262-1.394v1c1.117 0 1.926.36 2.497 1.038l.765-.644zm-3.262-1.394c-1.375 0-2.492.449-3.267 1.4l.774.632c.547-.67 1.35-1.032 2.493-1.032v-1zm-3.263 1.394c-.787.935-1.141 2.253-1.141 3.874h1c0-1.493.328-2.543.907-3.23l-.766-.644zm-1.141 3.874v4.224h1v-4.224h-1zm.5 4.724H39.6v-1h-7.776v1zm8.276-.5v-4.224h-1v4.224h1zm2.7-35.606h.5v-.463l-.462-.035-.038.498zm0 13.024h-.5v.622l.607-.133-.107-.489zm2.528-1.664l-.408-.288.408.288zm.544-5.632l.468-.175-.003-.008-.465.183zm-1.28-1.952l-.339-.367-.376.346.355.368.36-.347zm2.88-2.656l.329-.376-.338-.296-.33.305.339.367zm1.664 12.256l.445.229.002-.005-.447-.224zm-3.168 3.456l.258.428-.258-.428zm-9.12.032l-.255.43.002.001.253-.431zm-3.168-3.296l.44-.237-.001-.002-.439.239zm-.064-9.28l-.442-.234.442.234zm3.136-3.2l.245.436.008-.005-.253-.431zm.512 10.592l-.384.32.384-.32zm2.624 1.408l-.076.494.576.089v-.583h-.5zm0-8.48h.5v-.584l-.578.09.078.494zm-2.592 1.408l.379.327.005-.007-.384-.32zm4.16-5.612l.089.005.26.018.957.072.076-.997a46.51 46.51 0 00-1.382-.098v1zm.844-.404v13.024h1v-13.024h-1zm.607 13.513c1.186-.261 2.137-.886 2.83-1.864l-.817-.577c-.545.77-1.28 1.255-2.227 1.464l.214.977zm2.83-1.864c.69-.976 1.019-2.171 1.019-3.553h-1c0 1.221-.29 2.202-.836 2.976l.816.577zm1.019-3.553c0-.942-.135-1.793-.416-2.543l-.936.351c.23.615.352 1.343.352 2.192h1zm-.419-2.551a6.443 6.443 0 00-1.385-2.116l-.72.694a5.447 5.447 0 011.175 1.789l.93-.367zm-1.406-1.401l2.88-2.656-.678-.735-2.88 2.656.678.735zm2.212-2.647c1.72 1.502 2.613 3.716 2.613 6.727h1c0-3.218-.963-5.74-2.955-7.48l-.658.753zm2.613 6.727c0 1.877-.36 3.515-1.067 4.929l.894.447c.787-1.573 1.173-3.369 1.173-5.376h-1zm-1.065 4.924c-.728 1.416-1.722 2.497-2.981 3.256l.516.856c1.43-.862 2.547-2.085 3.355-3.655l-.89-.457zm-2.981 3.256c-1.26.76-2.694 1.144-4.318 1.144v1c1.79 0 3.406-.426 4.834-1.288l-.516-.856zm-4.318 1.144c-1.604 0-3.03-.374-4.29-1.115l-.507.862c1.427.838 3.03 1.253 4.797 1.253v-1zm-4.289-1.114a7.897 7.897 0 01-2.983-3.103l-.88.474a8.892 8.892 0 003.353 3.489l.51-.86zm-2.984-3.105c-.725-1.329-1.091-2.814-1.091-4.465h-1c0 1.805.402 3.457 1.213 4.944l.878-.479zm-1.091-4.465c0-1.611.346-3.054 1.03-4.341l-.884-.469c-.767 1.444-1.146 3.051-1.146 4.81h1zm1.03-4.341a7.31 7.31 0 012.94-2.999l-.491-.872a8.316 8.316 0 00-3.333 3.402l.884.469zm2.947-3.004c1.257-.737 2.734-1.115 4.451-1.115v-1c-1.867 0-3.526.412-4.957 1.253l.506.862zm-1.201 7.313c0 1.232.351 2.299 1.076 3.168l.768-.64c-.555-.666-.844-1.498-.844-2.528h-1zm1.076 3.168c.728.874 1.718 1.396 2.932 1.582l.152-.988c-1.005-.155-1.764-.571-2.316-1.234l-.768.64zm3.508 1.088v-8.48h-1v8.48h1zm-.578-8.974c-1.194.188-2.172.711-2.898 1.582l.768.64c.554-.665 1.304-1.08 2.285-1.234l-.155-.988zm-2.893 1.576c-.747.868-1.113 1.925-1.113 3.142h1c0-1.002.295-1.821.87-2.489l-.757-.653zm-1.861-15.157v.5h1.554l-1.262-.906-.292.406zm-1.888-2.4l-.462.192.002.004.46-.196zm-.64-3.52v-.5h-.5v.5h.5zm4.608 0l.498.038.042-.538h-.54v.5zm1.152 4.48l.358-.349-.005-.005-.353.354zM50 264.863h.5v-.5H50v.5zm0 4.992v.5h.5v-.5H50zm-17.216 0h-.5v.5h.5v-.5zm0-4.768v-.5h-.5v.5h.5zm2.564-.406c-.753-.541-1.327-1.266-1.72-2.19l-.92.392c.46 1.081 1.145 1.956 2.056 2.61l.584-.812zm-1.718-2.187c-.397-.952-.602-2.058-.602-3.327h-1c0 1.376.222 2.617.678 3.712l.923-.385zm-1.102-2.827h4.608v-1h-4.608v1zm4.11-.539c-.043.552-.066.945-.066 1.159h1c0-.17.02-.525.063-1.082l-.997-.077zm-.066 1.159c0 1.527.436 2.787 1.362 3.713l.708-.707c-.695-.695-1.07-1.675-1.07-3.006h-1zm1.358 3.709c.916.941 2.264 1.367 3.942 1.367v-1c-1.522 0-2.564-.385-3.226-1.065l-.716.698zm3.942 1.367H50v-1h-8.128v1zm7.628-.5v4.992h1v-4.992h-1zm.5 4.492H32.784v1H50v-1zm-16.716.5v-4.768h-1v4.768h1zm-.5-4.268h2.272v-1h-2.272v1zm.384-16.265v.5h.5v-.5h-.5zm0-4.416v-.5h-.5v.5h.5zm3.84 0h.5v-.5h-.5v.5zm0 4.287h-.5v.5h.5v-.5zm12.992 0h.5v-.5H50v.5zm0 4.992v.5h.5v-.5H50zm-12.992.001v-.5h-.5v.5h.5zm0 2.655v.5h.5v-.5h-.5zm-3.84 0h-.5v.5h.5v-.5zm0-2.655h.5v-.5h-.5v.5zm-5.44-1.729l-.357.351.003.003.354-.354zm-1.472-7.04l.484.125.003-.009.001-.009-.488-.107zm.672-1.696l.17-.47-.368-.133-.218.326.416.277zm3.616 1.313l.409.287.376-.535-.614-.223-.171.471zm3.124 4.288v-4.416h-1v4.416h1zm-.5-3.916h3.84v-1h-3.84v1zm3.34-.5v4.287h1v-4.287h-1zm.5 4.787H50v-1H37.008v1zm12.492-.5v4.992h1v-4.992h-1zm.5 4.492l-12.992.001v1L50 254.685v-1zm-13.492.501v2.655h1v-2.655h-1zm.5 2.155h-3.84v1h3.84v-1zm-3.34.5v-2.655h-1v2.655h1zm-.5-3.155H32.4v1h.768v-1zm-.768 0c-1.86 0-3.279-.543-4.319-1.582l-.707.707c1.265 1.265 2.96 1.875 5.026 1.875v-1zm-4.315-1.579c-1.036-1.055-1.585-2.558-1.585-4.578h-1c0 2.205.603 3.987 1.871 5.279l.714-.701zm-1.585-4.578c0-.708.08-1.37.24-1.987l-.968-.249a8.915 8.915 0 00-.272 2.236h1zm.244-2.005c.14-.639.345-1.142.6-1.525l-.832-.555c-.342.513-.586 1.14-.745 1.867l.977.213zm.014-1.332l3.616 1.312.34-.941-3.615-1.312-.341.941zm3.377.554c-.47.668-.699 1.442-.699 2.303h1c0-.674.176-1.244.517-1.728l-.818-.575zm-.699 2.303c0 .848.235 1.571.787 2.074.544.495 1.31.699 2.209.699v-1c-.766 0-1.247-.176-1.535-.438-.28-.255-.461-.667-.461-1.335h-1zm2.996 2.773h.736v-1h-.736v1zM42.8 224.589h.5v-.463l-.462-.035-.038.498zm0 13.024h-.5v.622l.607-.133-.107-.489zm2.528-1.664l-.408-.288.408.288zm.544-5.632l.468-.175-.003-.008-.465.183zm-1.28-1.952l-.339-.367-.376.346.355.368.36-.347zm2.88-2.656l.329-.376-.338-.296-.33.305.339.367zm1.664 12.256l.445.229.002-.005-.447-.224zm-3.168 3.456l.258.428-.258-.428zm-9.12.032l-.255.43.002.001.253-.431zm-3.168-3.296l.44-.237-.001-.002-.439.239zm-.064-9.28l-.442-.234.442.234zm3.136-3.2l.245.436.008-.005-.253-.431zm.512 10.592l-.384.32.384-.32zm2.624 1.408l-.076.494.576.089v-.583h-.5zm0-8.48h.5v-.584l-.578.09.078.494zm-2.592 1.408l.379.327.005-.007-.384-.32zm4.16-5.612l.089.005.26.018.957.072.076-.997a46.51 46.51 0 00-1.382-.098v1zm.844-.404v13.024h1v-13.024h-1zm.607 13.513c1.186-.261 2.137-.886 2.83-1.864l-.817-.577c-.545.77-1.28 1.255-2.227 1.464l.214.977zm2.83-1.864c.69-.976 1.019-2.171 1.019-3.553h-1c0 1.221-.29 2.202-.836 2.976l.816.577zm1.019-3.553c0-.942-.135-1.793-.416-2.543l-.936.351c.23.615.352 1.343.352 2.192h1zm-.419-2.551a6.443 6.443 0 00-1.385-2.116l-.72.694a5.447 5.447 0 011.175 1.789l.93-.367zm-1.406-1.401l2.88-2.656-.678-.735-2.88 2.656.678.735zm2.212-2.647c1.72 1.502 2.613 3.716 2.613 6.727h1c0-3.218-.963-5.74-2.955-7.48l-.658.753zm2.613 6.727c0 1.877-.36 3.515-1.067 4.929l.894.447c.787-1.573 1.173-3.369 1.173-5.376h-1zm-1.065 4.924c-.728 1.416-1.722 2.497-2.981 3.256l.516.856c1.43-.862 2.547-2.085 3.355-3.655l-.89-.457zm-2.981 3.256c-1.26.76-2.694 1.144-4.318 1.144v1c1.79 0 3.406-.426 4.834-1.288l-.516-.856zm-4.318 1.144c-1.604 0-3.03-.374-4.29-1.115l-.507.862c1.427.838 3.03 1.253 4.797 1.253v-1zm-4.289-1.114a7.897 7.897 0 01-2.983-3.103l-.88.474a8.892 8.892 0 003.353 3.489l.51-.86zm-2.984-3.105c-.725-1.329-1.091-2.814-1.091-4.465h-1c0 1.805.402 3.457 1.213 4.944l.878-.479zm-1.091-4.465c0-1.611.346-3.054 1.03-4.341l-.884-.469c-.767 1.444-1.146 3.051-1.146 4.81h1zm1.03-4.341a7.31 7.31 0 012.94-2.999l-.491-.872a8.316 8.316 0 00-3.333 3.402l.884.469zm2.947-3.004c1.257-.737 2.734-1.115 4.451-1.115v-1c-1.867 0-3.526.412-4.957 1.253l.506.862zm-1.201 7.313c0 1.232.351 2.299 1.076 3.168l.768-.64c-.555-.666-.844-1.498-.844-2.528h-1zm1.076 3.168c.728.874 1.718 1.396 2.932 1.582l.152-.988c-1.005-.155-1.764-.571-2.316-1.234l-.768.64zm3.508 1.088v-8.48h-1v8.48h1zm-.578-8.974c-1.194.188-2.172.711-2.898 1.582l.768.64c.554-.665 1.304-1.08 2.285-1.234l-.155-.988zm-2.893 1.576c-.747.868-1.113 1.925-1.113 3.142h1c0-1.002.295-1.821.87-2.489l-.757-.653zm12.219-13.749l.442.234.004-.008-.446-.226zm-3.168 3.424l.258.428.005-.003-.263-.425zm-9.152 0l-.263.425.005.003.258-.428zm-3.136-3.424l.445-.229-.002-.003-.443.232zm0-9.696l.434.248.005-.008-.439-.24zm3.232-2.976l.44-.237-.218-.407-.423.186.201.458zm2.08 3.872l.247.435.425-.242-.232-.43-.44.237zm-1.088 7.104l-.354.353.354-.353zm5.888-7.104l-.439-.24-.238.436.435.241.242-.437zm2.112-3.872l.206-.456-.423-.191-.222.407.439.24zm3.2 2.976l-.436.245.002.003.434-.248zm.652 4.736c0 1.765-.359 3.339-1.066 4.734l.892.452c.786-1.55 1.174-3.282 1.174-5.186h-1zm-1.062 4.726c-.728 1.375-1.724 2.449-2.99 3.233l.527.85c1.423-.881 2.539-2.089 3.347-3.615l-.884-.468zm-2.984 3.23c-1.26.759-2.694 1.144-4.318 1.144v1c1.79 0 3.405-.426 4.834-1.288l-.516-.856zm-4.318 1.144c-1.624 0-3.059-.385-4.318-1.144l-.516.856c1.428.862 3.044 1.288 4.834 1.288v-1zm-4.313-1.141c-1.264-.783-2.248-1.855-2.954-3.228l-.89.458c.787 1.528 1.894 2.739 3.318 3.62l.526-.85zm-2.956-3.231c-.727-1.393-1.095-2.966-1.095-4.728h-1c0 1.906.4 3.64 1.209 5.191l.886-.463zm-1.095-4.728c0-1.742.368-3.232 1.086-4.488l-.868-.496c-.818 1.431-1.218 3.098-1.218 4.984h1zm1.09-4.496c.695-1.27 1.69-2.185 2.995-2.758l-.402-.916c-1.51.664-2.67 1.733-3.47 3.194l.878.48zm2.353-2.98l2.08 3.872.881-.473-2.08-3.872-.88.473zm2.274 3.201c-1.72.976-2.621 2.425-2.621 4.307h1c0-1.489.678-2.622 2.115-3.437l-.494-.87zm-2.621 4.307c0 1.422.471 2.63 1.426 3.585l.708-.707c-.752-.752-1.134-1.698-1.134-2.878h-1zm1.426 3.585c.967.967 2.268 1.427 3.842 1.427v-1c-1.37 0-2.395-.394-3.135-1.134l-.707.707zm3.842 1.427c1.574 0 2.875-.46 3.841-1.427l-.707-.707c-.74.74-1.764 1.134-3.134 1.134v1zm3.841-1.427c.956-.955 1.427-2.163 1.427-3.585h-1c0 1.18-.382 2.126-1.134 2.878l.707.707zm1.427-3.585c0-.934-.217-1.776-.665-2.509-.448-.732-1.11-1.329-1.96-1.801l-.485.875c.728.404 1.25.889 1.591 1.448.341.557.519 1.213.519 1.987h1zm-2.43-3.633l2.113-3.872-.878-.479-2.112 3.872.878.479zm1.468-3.656c1.264.573 2.252 1.489 2.97 2.766l.872-.49c-.818-1.454-1.963-2.522-3.43-3.187l-.412.911zm2.972 2.769c.718 1.256 1.086 2.746 1.086 4.488h1c0-1.886-.4-3.553-1.218-4.984l-.868.496zm.498-18.732l.402-.298-.226-.305-.354.135.178.468zm.832 1.823l.486-.117-.003-.01-.483.127zm-1.312 7.009l.364.342.003-.003-.367-.339zm-11.68 1.663v-.5h-.5v.5h.5zm0 2.657v.5h.5v-.5h-.5zm-3.84 0h-.5v.5h.5v-.5zm0-2.657h.5v-.5h-.5v.5zm-4.192 0h-.5v.5h.5v-.5zm0-4.992v-.5h-.5v.5h.5zm4.192 0v.5h.5v-.5h-.5zm0-4.287v-.5h-.5v.5h.5zm3.84 0h.5v-.5h-.5v.5zm0 4.287h-.5v.5h.5v-.5zm8.704-.543l.333.372.01-.009.01-.01-.353-.353zm-.064-3.617l-.178-.467-.628.24.41.532.396-.305zm3.118-1.046c.318.429.571.977.75 1.654l.967-.255c-.204-.773-.505-1.442-.913-1.994l-.804.595zm.748 1.644c.16.662.242 1.369.242 2.122h1c0-.825-.09-1.611-.27-2.357l-.972.235zm.242 2.122c0 1.965-.5 3.418-1.435 4.429l.734.679c1.156-1.25 1.701-2.976 1.701-5.108h-1zm-1.432 4.426c-.922.979-2.308 1.506-4.244 1.506v1c2.117 0 3.804-.581 4.972-1.821l-.728-.685zm-4.244 1.506h-7.072v1h7.072v-1zm-7.572.5v2.657h1v-2.657h-1zm.5 2.157h-3.84v1h3.84v-1zm-3.34.5v-2.657h-1v2.657h1zm-.5-3.157h-4.192v1h4.192v-1zm-3.692.5v-4.992h-1v4.992h1zm-.5-4.492h4.192v-1h-4.192v1zm4.692-.5v-4.287h-1v4.287h1zm-.5-3.788h3.84v-.999h-3.84v.999zm3.34-.499v4.287h1v-4.287h-1zm.5 4.787h7.008v-1h-7.008v1zm7.008 0c.807 0 1.505-.202 2.03-.671l-.667-.745c-.287.256-.719.416-1.363.416v1zm2.05-.69c.5-.5.722-1.174.722-1.953h-1c0 .586-.162.978-.43 1.246l.708.707zm.722-1.953c0-.885-.241-1.668-.744-2.321l-.792.609c.35.457.536 1.018.536 1.712h1zm-.962-1.549l3.52-1.344-.356-.935-3.52 1.344.356.935zm18.822 111.007l.434.249.004-.009-.438-.24zm3.104-3.104l.243.437.003-.002-.246-.435zm9.312 0l.246-.435-.003-.002-.243.437zm3.104 3.104l.437-.243-.002-.003-.435.246zm-.992 9.536l-.336-.37-.959.87h1.295v-.5zm8.032 0h.5v-.5h-.5v.5zm0 4.992v.5h.5v-.5h-.5zm-23.424 0h-.5v.5h.5v-.5zm0-4.768v-.5h-.5v.5h.5zm1.984 0v.5h1.387l-1.068-.885-.319.385zm10.112-7.68l-.345.362.345-.362zm-6.944 0l.34.367.009-.009-.349-.358zm0 6.304l-.345.362.345-.362zm6.944 0l.34.367.009-.009-.349-.358zm-11.852-4.032c0-1.519.353-2.883 1.054-4.103l-.868-.498c-.793 1.382-1.186 2.92-1.186 4.601h1zm1.058-4.112a7.265 7.265 0 012.909-2.907l-.486-.874a8.26 8.26 0 00-3.3 3.301l.877.48zm2.912-2.909c1.236-.697 2.695-1.055 4.394-1.055v-1c-1.842 0-3.477.389-4.886 1.185l.492.87zm4.394-1.055c1.699 0 3.17.358 4.43 1.057l.485-.874c-1.43-.794-3.072-1.183-4.915-1.183v1zm4.426 1.055a7.536 7.536 0 012.915 2.915l.87-.492a8.533 8.533 0 00-3.293-3.293l-.492.87zm2.913 2.912c.681 1.222 1.025 2.588 1.025 4.109h1c0-1.679-.381-3.214-1.151-4.595l-.874.486zm1.025 4.109c0 2.083-.652 3.666-1.916 4.814l.672.74c1.51-1.37 2.244-3.242 2.244-5.554h-1zm-1.58 5.684h8.032v-1h-8.032v1zm7.532-.5v4.992h1v-4.992h-1zm.5 4.492H63.784v1h23.424v-1zm-22.924.5v-4.768h-1v4.768h1zm-.5-4.268h1.984v-1h-1.984v1zm2.303-.885c-1.353-1.121-2.059-2.768-2.059-5.023h-1c0 2.481.788 4.44 2.421 5.793l.638-.77zm11.573-4.159c0-1.404-.474-2.585-1.436-3.499l-.688.725c.744.708 1.124 1.618 1.124 2.774h1zm-1.435-3.498c-.986-.938-2.281-1.386-3.833-1.386v1c1.35 0 2.38.384 3.143 1.11l.69-.724zm-3.833-1.386c-1.551 0-2.839.448-3.805 1.39l.698.716c.74-.722 1.757-1.106 3.107-1.106v-1zm-3.796 1.381c-.985.913-1.472 2.095-1.472 3.503h1c0-1.152.387-2.061 1.152-2.769l-.68-.734zm-1.472 3.503c0 1.408.487 2.598 1.467 3.53l.69-.724c-.77-.732-1.157-1.654-1.157-2.806h-1zm1.468 3.53c.966.919 2.252 1.354 3.8 1.354v-1c-1.354 0-2.372-.376-3.112-1.079l-.688.725zm3.8 1.354c1.548 0 2.842-.435 3.828-1.349l-.68-.734c-.763.708-1.795 1.083-3.148 1.083v1zm3.837-1.358c.958-.934 1.431-2.122 1.431-3.526h-1c0 1.156-.38 2.08-1.13 2.81l.699.716zm-10.173-22.356v.5h1.554l-1.262-.906-.292.406zm-1.888-2.4l-.462.193.002.003.46-.196zm-.64-3.52v-.5h-.5v.5h.5zm4.608 0l.499.039.04-.539h-.539v.5zm1.152 4.48l.358-.349-.004-.004-.354.353zM81 287.33h.5v-.5H81v.5zm0 4.992v.5h.5v-.5H81zm-17.216 0h-.5v.5h.5v-.5zm0-4.768v-.5h-.5v.5h.5zm2.564-.406c-.753-.54-1.327-1.265-1.72-2.19l-.92.392c.46 1.081 1.145 1.956 2.056 2.61l.584-.812zm-1.719-2.186c-.396-.953-.601-2.059-.601-3.328h-1c0 1.376.222 2.617.678 3.713l.923-.385zm-1.101-2.828h4.608v-1h-4.608v1zm4.11-.538c-.043.552-.066.944-.066 1.158h1c0-.17.02-.524.063-1.081l-.998-.077zm-.066 1.158c0 1.528.436 2.787 1.362 3.714l.708-.707c-.695-.695-1.07-1.675-1.07-3.007h-1zm1.358 3.709c.916.942 2.264 1.367 3.942 1.367v-1c-1.522 0-2.564-.385-3.226-1.065l-.716.698zm3.942 1.367H81v-1h-8.128v1zm7.628-.5v4.992h1v-4.992h-1zm.5 4.492H63.784v1H81v-1zm-16.716.5v-4.768h-1v4.768h1zm-.5-4.268h2.272v-1h-2.272v1zm16.352-13.808l.44.237.005-.008-.445-.229zm-3.168 3.36l.258.428-.258-.428zm-9.152 0l-.258.428.258-.428zm-3.136-3.36l.443-.231-.001-.003-.442.234zm0-9.76l.44.237.003-.005-.443-.232zm3.136-3.36l-.258-.428.258.428zm9.152 0l.258-.428-.258.428zm3.168 3.36l.443-.231-.003-.005-.44.236zm-4.256 1.728l-.345.363.345-.363zm-6.944 0l.34.367.009-.009-.349-.358zm0 6.304l.35-.358-.005-.004-.345.362zm6.944 0l.345.363.004-.005-.349-.358zm4.876-3.168c0 1.743-.358 3.295-1.065 4.667l.89.458c.787-1.529 1.175-3.241 1.175-5.125h-1zm-1.06 4.66c-.727 1.353-1.722 2.405-2.986 3.168l.516.856c1.424-.858 2.541-2.046 3.35-3.551l-.88-.473zm-2.986 3.168c-1.26.76-2.694 1.144-4.318 1.144v1c1.79 0 3.406-.426 4.834-1.288l-.516-.856zm-4.318 1.144c-1.624 0-3.058-.384-4.318-1.144l-.516.856c1.428.862 3.044 1.288 4.834 1.288v-1zm-4.318-1.144c-1.263-.762-2.245-1.813-2.95-3.163l-.887.463c.788 1.508 1.896 2.697 3.32 3.556l.517-.856zm-2.952-3.166c-.726-1.371-1.094-2.921-1.094-4.662h-1c0 1.886.4 3.6 1.21 5.13l.884-.468zm-1.094-4.662c0-1.74.368-3.279 1.092-4.627l-.88-.473c-.812 1.51-1.212 3.214-1.212 5.1h1zm1.095-4.632c.706-1.351 1.688-2.402 2.951-3.164l-.516-.856c-1.425.859-2.533 2.048-3.321 3.557l.886.463zm2.951-3.164c1.26-.759 2.694-1.144 4.318-1.144v-1c-1.79 0-3.406.426-4.834 1.288l.516.856zm4.318-1.144c1.624 0 3.058.385 4.318 1.144l.516-.856c-1.428-.862-3.044-1.288-4.834-1.288v1zm4.318 1.144c1.264.763 2.259 1.816 2.986 3.169l.88-.473c-.808-1.506-1.926-2.693-3.35-3.552l-.516.856zm2.983 3.164c.705 1.349 1.063 2.889 1.063 4.632h1c0-1.884-.388-3.586-1.177-5.095l-.886.463zm-2.033 4.632c0-1.403-.474-2.584-1.436-3.498l-.688.725c.744.707 1.124 1.617 1.124 2.773h1zm-1.435-3.498c-.986-.938-2.281-1.386-3.833-1.386v1c1.35 0 2.38.384 3.143 1.111l.69-.725zm-3.833-1.386c-1.551 0-2.839.448-3.805 1.39l.698.716c.74-.722 1.757-1.106 3.107-1.106v-1zm-3.796 1.382c-.985.912-1.472 2.094-1.472 3.502h1c0-1.152.387-2.06 1.152-2.769l-.68-.733zm-1.472 3.502c0 1.408.487 2.598 1.467 3.531l.69-.725c-.77-.731-1.157-1.653-1.157-2.806h-1zm1.463 3.526c.966.942 2.254 1.39 3.805 1.39v-1c-1.35 0-2.367-.384-3.107-1.106l-.698.716zm3.805 1.39c1.552 0 2.847-.448 3.833-1.385l-.69-.725c-.763.726-1.793 1.11-3.143 1.11v1zm3.837-1.39c.958-.933 1.431-2.122 1.431-3.526h-1c0 1.157-.38 2.08-1.13 2.81l.699.716zm-11.581-32.11l.434.248.004-.008-.438-.24zm3.104-3.105l.243.438.003-.002-.246-.436zm9.312 0l.246-.435-.003-.002-.243.437zm3.104 3.105l.437-.244-.002-.002-.435.246zm-.992 9.535l-.336-.37-.959.87h1.295v-.5zm8.032 0h.5v-.5h-.5v.5zm0 4.992v.5h.5v-.5h-.5zm-23.424 0h-.5v.5h.5v-.5zm0-4.768v-.5h-.5v.5h.5zm1.984 0v.5h1.387l-1.068-.885-.319.385zm10.112-7.68l-.345.363.345-.363zm-6.944 0l.34.367.009-.009-.349-.358zm0 6.304l-.345.363.345-.363zm6.944 0l.34.367.009-.009-.349-.358zm-11.852-4.032c0-1.518.353-2.882 1.054-4.103l-.868-.497c-.793 1.382-1.186 2.919-1.186 4.6h1zm1.058-4.111a7.259 7.259 0 012.909-2.907l-.486-.875a8.265 8.265 0 00-3.3 3.301l.877.481zm2.912-2.909c1.236-.698 2.695-1.056 4.394-1.056v-1c-1.842 0-3.477.39-4.886 1.185l.492.871zm4.394-1.056c1.699 0 3.17.358 4.43 1.058l.485-.875c-1.43-.793-3.072-1.183-4.915-1.183v1zm4.426 1.056a7.54 7.54 0 012.915 2.914l.87-.491a8.542 8.542 0 00-3.293-3.294l-.492.871zm2.913 2.912c.681 1.221 1.025 2.587 1.025 4.108h1c0-1.678-.381-3.214-1.151-4.595l-.874.487zm1.025 4.108c0 2.084-.652 3.667-1.916 4.814l.672.741c1.51-1.37 2.244-3.243 2.244-5.555h-1zm-1.58 5.684h8.032v-1h-8.032v1zm7.532-.5v4.992h1v-4.992h-1zm.5 4.492H63.784v1h23.424v-1zm-22.924.5v-4.768h-1v4.768h1zm-.5-4.268h1.984v-1h-1.984v1zm2.303-.885c-1.353-1.121-2.059-2.767-2.059-5.023h-1c0 2.481.788 4.44 2.421 5.794l.638-.771zm11.573-4.159c0-1.403-.474-2.584-1.436-3.498l-.688.725c.744.707 1.124 1.617 1.124 2.773h1zm-1.435-3.498c-.986-.937-2.281-1.385-3.833-1.385v1c1.35 0 2.38.383 3.143 1.11l.69-.725zm-3.833-1.385c-1.551 0-2.839.447-3.805 1.389l.698.716c.74-.721 1.757-1.105 3.107-1.105v-1zm-3.796 1.381c-.985.913-1.472 2.095-1.472 3.502h1c0-1.152.387-2.06 1.152-2.769l-.68-.733zm-1.472 3.502c0 1.408.487 2.598 1.467 3.531l.69-.725c-.77-.731-1.157-1.653-1.157-2.806h-1zm1.468 3.531c.966.918 2.252 1.353 3.8 1.353v-1c-1.354 0-2.372-.375-3.112-1.078l-.688.725zm3.8 1.353c1.548 0 2.842-.435 3.828-1.349l-.68-.733c-.763.707-1.795 1.082-3.148 1.082v1zm3.837-1.358c.958-.933 1.431-2.122 1.431-3.526h-1c0 1.157-.38 2.08-1.13 2.81l.699.716zm3.907-20.883l.44.236.005-.007-.445-.229zm-3.168 3.36l.258.428-.258-.428zm-9.152 0l-.258.428.258-.428zm-3.136-3.36l.443-.232-.001-.002-.442.234zm0-9.76l.44.236.003-.005-.443-.231zm3.136-3.36l-.258-.428.258.428zm9.152 0l.258-.428-.258.428zm3.168 3.36l.443-.232-.003-.005-.44.237zm-4.256 1.728l-.345.362.345-.362zm-6.944 0l.34.367.009-.009-.349-.358zm0 6.304l.35-.358-.005-.005-.345.363zm6.944 0l.345.362.004-.004-.349-.358zm4.876-3.168c0 1.742-.358 3.295-1.065 4.667l.89.458c.787-1.529 1.175-3.241 1.175-5.125h-1zm-1.06 4.659c-.727 1.353-1.722 2.406-2.986 3.169l.516.856c1.424-.859 2.541-2.046 3.35-3.552l-.88-.473zm-2.986 3.169c-1.26.759-2.694 1.144-4.318 1.144v1c1.79 0 3.406-.426 4.834-1.288l-.516-.856zm-4.318 1.144c-1.624 0-3.058-.385-4.318-1.144l-.516.856c1.428.862 3.044 1.288 4.834 1.288v-1zm-4.318-1.144c-1.263-.762-2.245-1.813-2.95-3.164l-.887.463c.788 1.509 1.896 2.698 3.32 3.557l.517-.856zm-2.952-3.166c-.726-1.371-1.094-2.922-1.094-4.662h-1c0 1.886.4 3.6 1.21 5.13l.884-.468zm-1.094-4.662c0-1.741.368-3.279 1.092-4.628l-.88-.473c-.812 1.51-1.212 3.215-1.212 5.101h1zm1.095-4.633c.706-1.35 1.688-2.401 2.951-3.163l-.516-.856c-1.425.859-2.533 2.048-3.321 3.556l.886.463zm2.951-3.163c1.26-.76 2.694-1.144 4.318-1.144v-1c-1.79 0-3.406.426-4.834 1.288l.516.856zm4.318-1.144c1.624 0 3.058.384 4.318 1.144l.516-.856c-1.428-.862-3.044-1.288-4.834-1.288v1zm4.318 1.144c1.264.763 2.259 1.815 2.986 3.168l.88-.473c-.808-1.505-1.926-2.693-3.35-3.551l-.516.856zm2.983 3.163c.705 1.35 1.063 2.89 1.063 4.633h1c0-1.884-.388-3.586-1.177-5.096l-.886.463zm-2.033 4.633c0-1.404-.474-2.585-1.436-3.499l-.688.725c.744.708 1.124 1.617 1.124 2.774h1zm-1.435-3.499c-.986-.937-2.281-1.385-3.833-1.385v1c1.35 0 2.38.384 3.143 1.11l.69-.725zm-3.833-1.385c-1.551 0-2.839.448-3.805 1.39l.698.716c.74-.722 1.757-1.106 3.107-1.106v-1zm-3.796 1.381c-.985.913-1.472 2.095-1.472 3.503h1c0-1.152.387-2.061 1.152-2.77l-.68-.733zm-1.472 3.503c0 1.407.487 2.597 1.467 3.53l.69-.725c-.77-.731-1.157-1.653-1.157-2.805h-1zm1.463 3.526c.966.942 2.254 1.39 3.805 1.39v-1c-1.35 0-2.367-.384-3.107-1.106l-.698.716zm3.805 1.39c1.552 0 2.847-.448 3.833-1.386l-.69-.725c-.763.727-1.793 1.111-3.143 1.111v1zm3.837-1.39c.957-.934 1.431-2.123 1.431-3.526h-1c0 1.156-.38 2.079-1.13 2.81l.699.716zm-10.173-22.351v.5h1.554l-1.262-.906-.292.406zm-1.888-2.4l-.462.192.002.004.46-.196zm-.64-3.52v-.5h-.5v.5h.5zm4.608 0l.499.038.04-.538h-.539v.5zm1.152 4.48l.358-.349-.005-.005-.353.354zM81 204.679h.5v-.5H81v.5zm0 4.992v.5h.5v-.5H81zm-17.216 0h-.5v.5h.5v-.5zm0-4.768v-.5h-.5v.5h.5zm2.564-.406c-.753-.541-1.327-1.266-1.72-2.19l-.92.392c.46 1.081 1.145 1.956 2.056 2.61l.584-.812zm-1.719-2.186c-.396-.953-.601-2.059-.601-3.328h-1c0 1.376.222 2.617.678 3.712l.923-.384zm-1.101-2.828h4.608v-1h-4.608v1zm4.11-.538c-.043.552-.066.944-.066 1.158h1c0-.17.02-.524.063-1.082l-.998-.076zm-.066 1.158c0 1.527.436 2.787 1.362 3.714l.707-.708c-.694-.695-1.069-1.675-1.069-3.006h-1zm1.358 3.709c.916.941 2.264 1.367 3.942 1.367v-1c-1.522 0-2.564-.385-3.226-1.065l-.716.698zm3.942 1.367H81v-1h-8.128v1zm7.628-.5v4.992h1v-4.992h-1zm.5 4.492H63.784v1H81v-1zm-16.716.5v-4.768h-1v4.768h1zm-.5-4.268h2.272v-1h-2.272v1zm16.384-22.366l.402-.297-.226-.306-.354.136.178.467zm.832 1.824l.486-.118-.003-.01-.483.128zm-1.312 7.008l.364.343.003-.004-.367-.339zm-11.68 1.664v-.5h-.5v.5h.5zm0 2.656v.5h.5v-.5h-.5zm-3.84 0h-.5v.5h.5v-.5zm0-2.656h.5v-.5h-.5v.5zm-4.192 0h-.5v.5h.5v-.5zm0-4.992v-.5h-.5v.5h.5zm4.192 0v.5h.5v-.5h-.5zm0-4.288v-.5h-.5v.5h.5zm3.84 0h.5v-.5h-.5v.5zm0 4.288h-.5v.5h.5v-.5zm8.704-.544l.333.373.01-.01.01-.009-.353-.354zm-.064-3.616l-.178-.467-.628.239.41.533.396-.305zm3.118-1.047c.317.43.571.977.75 1.655l.967-.256c-.204-.773-.505-1.442-.913-1.993l-.804.594zm.748 1.645c.16.662.242 1.369.242 2.122h1c0-.826-.09-1.612-.27-2.358l-.972.236zm.242 2.122c0 1.965-.5 3.417-1.435 4.429l.734.678c1.156-1.25 1.701-2.976 1.701-5.107h-1zm-1.432 4.425c-.922.979-2.308 1.507-4.244 1.507v1c2.117 0 3.804-.582 4.972-1.821l-.728-.686zm-4.244 1.507h-7.072v1h7.072v-1zm-7.572.5v2.656h1v-2.656h-1zm.5 2.156h-3.84v1h3.84v-1zm-3.34.5v-2.656h-1v2.656h1zm-.5-3.156h-4.192v1h4.192v-1zm-3.692.5v-4.992h-1v4.992h1zm-.5-4.492h4.192v-1h-4.192v1zm4.692-.5v-4.288h-1v4.288h1zm-.5-3.788h3.84v-1h-3.84v1zm3.34-.5v4.288h1v-4.288h-1zm.5 4.788h7.008v-1h-7.008v1zm7.008 0c.807 0 1.505-.203 2.03-.671l-.667-.746c-.287.257-.719.417-1.363.417v1zm2.05-.69c.5-.501.722-1.175.722-1.954h-1c0 .586-.162.979-.43 1.246l.707.708zm.722-1.954c0-.885-.241-1.668-.744-2.321l-.792.61c.35.456.536 1.017.536 1.711h1zm-.962-1.549l3.52-1.344-.356-.934-3.52 1.344.356.934zm-13.042-5.893h-.5v.5h.5v-.5zm0-4.992v-.5h-.5v.5h.5zm17.216 0h.5v-.5H81v.5zm0 4.992v.5h.5v-.5H81zm-20.416-.256l.367.339-.367-.339zm-3.968 0l.367-.34-.367.34zm-.032-4.48l.374.332-.374-.332zm4 0l.367-.34-.007-.007-.36.347zm3.7 4.736v-4.992h-1v4.992h1zm-.5-4.492H81v-1H63.784v1zm16.716-.5v4.992h1v-4.992h-1zm.5 4.492H63.784v1H81v-1zm-20.116-1.996c0 .814-.233 1.432-.667 1.9l.734.679c.633-.683.933-1.559.933-2.579h-1zm-.667 1.9a2.097 2.097 0 01-1.617.704v1a3.09 3.09 0 002.35-1.025l-.733-.679zm-1.617.704c-.65 0-1.179-.231-1.617-.704l-.734.679a3.094 3.094 0 002.351 1.025v-1zm-1.617-.704c-.434-.468-.667-1.086-.667-1.9h-1c0 1.02.3 1.896.933 2.579l.734-.679zm-.667-1.9c0-.82.226-1.44.642-1.908l-.748-.664c-.608.684-.894 1.557-.894 2.572h1zm.642-1.908a1.96 1.96 0 011.546-.696v-1a2.96 2.96 0 00-2.294 1.032l.748.664zm1.546-.696c.702 0 1.264.237 1.72.711l.72-.694c-.653-.678-1.478-1.017-2.44-1.017v1zm1.713.703c.434.469.667 1.087.667 1.901h1c0-1.021-.3-1.896-.933-2.58l-.734.679zm19.919-9.804l.44.236.005-.007-.445-.229zm-3.168 3.36l.258.428-.258-.428zm-9.152 0l-.258.428.258-.428zm-3.136-3.36l.443-.232-.001-.002-.442.234zm0-9.76l.44.236.003-.005-.443-.231zm3.136-3.36l-.258-.428.258.428zm9.152 0l.258-.428-.258.428zm3.168 3.36l.443-.232-.003-.005-.44.237zm-4.256 1.728l-.345.362.345-.362zm-6.944 0l.34.367.009-.009-.349-.358zm0 6.304l.35-.358-.005-.005-.345.363zm6.944 0l.345.362.004-.004-.349-.358zm4.876-3.168c0 1.742-.358 3.295-1.065 4.667l.89.458c.787-1.529 1.175-3.241 1.175-5.125h-1zm-1.06 4.659c-.727 1.353-1.722 2.406-2.986 3.169l.516.856c1.424-.859 2.541-2.046 3.35-3.552l-.88-.473zm-2.986 3.169c-1.26.759-2.694 1.144-4.318 1.144v1c1.79 0 3.406-.426 4.834-1.288l-.516-.856zm-4.318 1.144c-1.624 0-3.058-.385-4.318-1.144l-.516.856c1.428.862 3.044 1.288 4.834 1.288v-1zm-4.318-1.144c-1.263-.762-2.245-1.813-2.95-3.164l-.887.463c.788 1.508 1.896 2.698 3.32 3.557l.517-.856zm-2.952-3.166c-.726-1.371-1.094-2.922-1.094-4.662h-1c0 1.886.4 3.6 1.21 5.13l.884-.468zm-1.094-4.662c0-1.741.368-3.279 1.092-4.628l-.88-.473c-.812 1.51-1.212 3.215-1.212 5.101h1zm1.095-4.633c.706-1.35 1.688-2.401 2.951-3.163l-.516-.856c-1.425.859-2.533 2.048-3.321 3.556l.886.463zm2.951-3.163c1.26-.76 2.694-1.144 4.318-1.144v-1c-1.79 0-3.406.426-4.834 1.288l.516.856zm4.318-1.144c1.624 0 3.058.384 4.318 1.144l.516-.856c-1.428-.862-3.044-1.288-4.834-1.288v1zm4.318 1.144c1.264.763 2.259 1.815 2.986 3.168l.88-.473c-.808-1.505-1.926-2.693-3.35-3.551l-.516.856zm2.983 3.163c.705 1.35 1.063 2.89 1.063 4.633h1c0-1.884-.388-3.586-1.177-5.096l-.886.463zm-2.033 4.633c0-1.404-.474-2.585-1.436-3.499l-.688.725c.744.708 1.124 1.617 1.124 2.774h1zm-1.435-3.499c-.986-.937-2.281-1.385-3.833-1.385v1c1.35 0 2.38.384 3.143 1.11l.69-.725zm-3.833-1.385c-1.551 0-2.839.448-3.805 1.39l.698.716c.74-.722 1.757-1.106 3.107-1.106v-1zm-3.796 1.381c-.985.913-1.472 2.095-1.472 3.503h1c0-1.152.387-2.061 1.152-2.77l-.68-.733zm-1.472 3.503c0 1.407.487 2.597 1.467 3.53l.69-.725c-.77-.731-1.157-1.653-1.157-2.805h-1zm1.463 3.526c.966.942 2.254 1.39 3.805 1.39v-1c-1.35 0-2.367-.384-3.107-1.106l-.698.716zm3.805 1.39c1.552 0 2.847-.448 3.833-1.386l-.69-.725c-.763.727-1.793 1.111-3.143 1.111v1zm3.837-1.39c.957-.934 1.431-2.123 1.431-3.526h-1c0 1.156-.38 2.079-1.13 2.81l.699.716zm-10.781-33.199l.357.351.002-.003-.359-.348zM81 128.201h.5v-.5H81v.5zm0 4.992v.5h.5v-.5H81zm-12.128.896l.33.376.005-.005-.335-.371zm.16 5.6l.349-.359-.005-.004-.344.363zM81 140.809h.5v-.5H81v.5zm0 4.992v.5h.5v-.5H81zm-17.216 0h-.5v.5h.5v-.5zm0-4.768v-.5h-.5v.5h.5zm2.016 0v.5h1.29l-.953-.869-.337.369zm-1.664-2.464l.466-.182-.004-.009-.462.191zm-.108-3.232c0-2.026.604-3.609 1.776-4.801l-.713-.702c-1.387 1.411-2.063 3.262-2.063 5.503h1zm1.78-4.804c1.155-1.194 2.903-1.832 5.336-1.832v-1c-2.602 0-4.65.685-6.055 2.136l.718.696zm5.336-1.832H81v-1h-9.856v1zm9.356-.5v4.992h1v-4.992h-1zm.5 4.492h-9.088v1H81v-1zm-9.088 0c-1.426 0-2.584.31-3.375 1.025l.67.742c.531-.48 1.4-.767 2.705-.767v-1zm-3.37 1.02c-.816.715-1.194 1.732-1.194 2.968h1c0-1.025.305-1.736.853-2.216l-.658-.752zm-1.194 2.968c0 1.372.435 2.515 1.34 3.371l.688-.726c-.674-.637-1.028-1.5-1.028-2.645h-1zm1.335 3.366c.896.871 2.195 1.262 3.805 1.262v-1c-1.462 0-2.467-.356-3.108-.978l-.697.716zm3.805 1.262H81v-1h-8.512v1zm8.012-.5v4.992h1v-4.992h-1zm.5 4.492H63.784v1H81v-1zm-16.716.5v-4.768h-1v4.768h1zm-.5-4.268H65.8v-1h-2.016v1zm2.353-.869c-.665-.606-1.177-1.362-1.535-2.277l-.932.364c.41 1.048 1.007 1.935 1.793 2.651l.674-.738zm-1.539-2.286c-.378-.915-.57-1.926-.57-3.041h-1c0 1.232.213 2.375.646 3.423l.924-.382zm16.146-17.582l.483.128.002-.007-.485-.121zM79.4 124.06l-.21.454.39.181.238-.36-.418-.275zm-3.584-1.664l-.421-.269-.308.482.518.241.211-.454zm1.216-2.784l.48.141.002-.009-.482-.132zm-2.176-5.504l.469.174-.469-.174zm-.544 2.656l.495.075.001-.013-.496-.062zm-.736 3.488l-.479-.145.479.145zm-1.472 2.4l.342.364.006-.005-.348-.359zm-5.888.064l-.3.4.002.001.298-.401zm-1.984-2.752l-.466.18v.003l.466-.183zm-.288-7.904l.487.113.002-.01-.489-.103zm1.088-3.008l.212-.453-.41-.192-.232.389.43.256zm3.552 1.664l.436.245.264-.469-.488-.229-.212.453zm-.832 7.36l-.436.244.436-.244zm2.272-.064l-.469-.174.469.174zm.608-2.752l-.493-.082-.001.007.494.075zm.768-3.456l.478.148.003-.011-.481-.137zm1.44-2.336l.342.364-.342-.364zm5.792-.032l.305-.396-.305.396zm1.952 2.816l.47-.173-.002-.004-.468.177zm.172 4.352c0 1.389-.166 2.746-.497 4.071l.97.242a17.71 17.71 0 00.527-4.313h-1zm-.495 4.064c-.355 1.334-.785 2.367-1.279 3.117l.836.55c.573-.871 1.038-2.015 1.41-3.411l-.967-.256zm-.65 2.938l-3.585-1.664-.42.908 3.583 1.664.422-.908zm-3.374-.941c.522-.816.945-1.789 1.275-2.912l-.96-.282c-.31 1.053-.697 1.936-1.157 2.656l.842.538zm1.277-2.921c.31-1.127.466-2.239.466-3.332h-1c0 .997-.142 2.019-.43 3.068l.964.264zm.466-3.332c0-1.081-.131-1.966-.444-2.598a1.986 1.986 0 00-.659-.787 1.7 1.7 0 00-.965-.283v1c.173 0 .302.042.407.113.108.073.22.196.32.401.21.424.341 1.123.341 2.154h1zm-2.068-3.668c-.351 0-.676.106-.949.329-.264.217-.449.518-.576.861l.938.348c.086-.233.184-.364.272-.435a.468.468 0 01.315-.103v-1zm-1.525 1.19c-.234.632-.42 1.564-.571 2.768l.992.124c.148-1.186.324-2.024.517-2.544l-.938-.348zm-.57 2.755c-.21 1.395-.452 2.532-.72 3.418l.958.29c.286-.949.536-2.137.751-3.558l-.988-.15zm-.72 3.418a5.025 5.025 0 01-1.341 2.186l.696.718a6.024 6.024 0 001.603-2.614l-.958-.29zm-1.335 2.181c-.583.547-1.447.856-2.666.856v1c1.383 0 2.525-.353 3.35-1.128l-.684-.728zm-2.666.856c-.986 0-1.84-.278-2.582-.829l-.596.802c.922.686 1.988 1.027 3.178 1.027v-1zm-2.58-.828c-.765-.574-1.376-1.409-1.819-2.535l-.93.366c.496 1.263 1.208 2.263 2.149 2.969l.6-.8zm-1.818-2.532c-.442-1.146-.67-2.512-.67-4.108h-1c0 1.689.241 3.182.738 4.468l.932-.36zm-.67-4.108c0-1.178.134-2.345.403-3.503l-.974-.226a16.443 16.443 0 00-.429 3.729h1zm.405-3.513c.249-1.18.595-2.127 1.029-2.855l-.86-.512c-.505.85-.884 1.909-1.147 3.161l.978.206zm.387-2.658l3.552 1.664.424-.906-3.552-1.664-.424.906zm3.328.966c-.897 1.592-1.344 3.33-1.344 5.205h1c0-1.709.406-3.277 1.216-4.715l-.872-.49zm-1.344 5.205c0 1.097.15 2 .512 2.644l.872-.488c-.236-.422-.384-1.12-.384-2.156h-1zm.512 2.644c.356.636.882 1.056 1.588 1.056v-1c-.233 0-.475-.114-.716-.544l-.872.488zm1.588 1.056c.362 0 .7-.1.985-.32.28-.216.474-.521.604-.87l-.938-.348c-.084.227-.183.354-.276.426a.581.581 0 01-.375.112v1zm1.589-1.19c.232-.627.44-1.586.633-2.851l-.988-.15c-.191 1.252-.388 2.128-.583 2.653l.938.348zm.632-2.844c.233-1.396.484-2.524.753-3.39l-.956-.296c-.286.926-.546 2.102-.783 3.522l.986.164zm.756-3.401a4.57 4.57 0 011.301-2.109l-.684-.728a5.566 5.566 0 00-1.579 2.563l.962.274zm1.301-2.109c.586-.55 1.43-.856 2.602-.856v-1c-1.346 0-2.464.355-3.286 1.128l.684.728zm2.602-.856c.958 0 1.8.285 2.543.856l.61-.792a5.042 5.042 0 00-3.153-1.064v1zm2.543.856c.742.571 1.344 1.424 1.79 2.597l.934-.354c-.493-1.302-1.192-2.326-2.114-3.035l-.61.792zm1.788 2.593c.422 1.147.641 2.536.641 4.179h1c0-1.728-.23-3.24-.703-4.525l-.938.346zM3.3 307.276H11v1.177l-5.214 4.246H11v1.419H3.3v-1.177l5.214-4.246H3.3v-1.419zm4.796-8.113c.095 0 .231.007.407.022v4.609a1.63 1.63 0 001.034-.627c.25-.345.374-.77.374-1.276 0-.645-.213-1.177-.638-1.595l.847-.737c.315.264.554.598.715 1.001.161.403.242.858.242 1.364 0 .645-.128 1.214-.385 1.705a2.822 2.822 0 01-1.067 1.144 3.092 3.092 0 01-1.562.396 3.074 3.074 0 01-1.54-.385 2.798 2.798 0 01-1.078-1.089 3.162 3.162 0 01-.385-1.562c0-.572.128-1.082.385-1.529.25-.455.605-.807 1.067-1.056.455-.257.983-.385 1.584-.385zm-1.936 2.97c0 .44.132.814.396 1.122.257.301.601.484 1.034.55v-3.333c-.425.059-.77.238-1.034.539-.264.301-.396.675-.396 1.122zm4.84-8.529l-2.035 1.507L11 296.629v1.518l-2.981-2.288-2.893 2.189v-1.529l1.925-1.441-1.925-1.441v-1.485l2.871 2.2L11 292.053v1.551zm-.319-6.757c.132.161.231.359.297.594.066.227.099.469.099.726 0 .645-.169 1.144-.506 1.496-.337.352-.829.528-1.474.528H6.27v.968h-1.1v-.968H3.828v-1.375H5.17v-1.573h1.1v1.573h2.794c.286 0 .506-.07.66-.209.147-.139.22-.341.22-.605 0-.308-.08-.565-.242-.77l.979-.385zM3.3 278.056c0-.668.11-1.247.33-1.738.22-.499.535-.88.946-1.144.41-.264.898-.396 1.463-.396.557 0 1.045.132 1.463.396.41.264.726.645.946 1.144.22.491.33 1.07.33 1.738v1.738H11v1.43H3.3v-3.168zm4.268.066c0-.624-.132-1.097-.396-1.419-.264-.323-.642-.484-1.133-.484s-.869.161-1.133.484c-.264.322-.396.795-.396 1.419v1.672h3.058v-1.672zm-1.584-6.556c-.616-.396-.924-1.092-.924-2.09h1.309a1.754 1.754 0 00-.033.319c0 .536.158.954.473 1.254.308.301.755.451 1.342.451H11v1.375H5.126v-1.309h.858zm5.093-6.502a3.33 3.33 0 01-.385 1.606c-.257.476-.612.85-1.067 1.122a3.092 3.092 0 01-1.562.396 3.03 3.03 0 01-1.551-.396 2.866 2.866 0 01-1.067-1.122 3.334 3.334 0 01-.385-1.606c0-.602.128-1.141.385-1.617a2.778 2.778 0 011.067-1.111 2.962 2.962 0 011.551-.407c.58 0 1.1.135 1.562.407.455.264.81.634 1.067 1.111.257.476.385 1.015.385 1.617zm-1.177 0c0-.506-.169-.924-.506-1.254-.337-.33-.781-.495-1.331-.495-.55 0-.994.165-1.331.495-.337.33-.506.748-.506 1.254s.169.924.506 1.254c.337.322.781.484 1.331.484.55 0 .994-.162 1.331-.484.337-.33.506-.748.506-1.254zm3.311-4.505c0 .579-.114 1.019-.341 1.32l-1.023-.396c.154-.206.231-.473.231-.803 0-.257-.08-.451-.242-.583-.154-.14-.385-.209-.693-.209H5.126v-1.375h5.984c.653 0 1.166.179 1.54.539.374.359.561.861.561 1.507zm-9.053-1.353a.896.896 0 01-.231.627.792.792 0 01-.594.253.758.758 0 01-.583-.253.873.873 0 01-.242-.627c0-.25.077-.459.231-.627a.71.71 0 01.561-.253.847.847 0 01.858.88zm3.938-8.678c.095 0 .231.007.407.022v4.609a1.63 1.63 0 001.034-.627c.25-.345.374-.77.374-1.276 0-.646-.213-1.177-.638-1.595l.847-.737c.315.264.554.597.715 1.001.161.403.242.858.242 1.364 0 .645-.128 1.213-.385 1.705a2.828 2.828 0 01-1.067 1.144 3.092 3.092 0 01-1.562.396 3.084 3.084 0 01-1.54-.385 2.797 2.797 0 01-1.078-1.089 3.162 3.162 0 01-.385-1.562c0-.572.128-1.082.385-1.529.25-.455.605-.807 1.067-1.056.455-.257.983-.385 1.584-.385zm-1.936 2.97c0 .44.132.814.396 1.122.257.3.601.484 1.034.55v-3.333c-.425.058-.77.238-1.034.539-.264.3-.396.674-.396 1.122zm4.917-7.646c0 .609-.128 1.155-.385 1.639a2.837 2.837 0 01-1.067 1.133 3.03 3.03 0 01-1.562.407 2.97 2.97 0 01-1.551-.407 2.853 2.853 0 01-1.067-1.122c-.257-.484-.385-1.034-.385-1.65 0-.579.117-1.085.352-1.518.235-.44.572-.77 1.012-.99l.616 1.056a1.623 1.623 0 00-.605.638 1.66 1.66 0 00-.209.825c0 .513.169.939.506 1.276.33.337.774.506 1.331.506.557 0 1.005-.165 1.342-.495.33-.337.495-.766.495-1.287 0-.301-.066-.576-.198-.825a1.708 1.708 0 00-.616-.638l.616-1.056c.44.227.781.561 1.023 1.001.235.433.352.935.352 1.507zm-.396-7.963c.132.161.231.359.297.594.066.227.099.469.099.726 0 .645-.169 1.144-.506 1.496-.337.352-.829.528-1.474.528H6.27v.968h-1.1v-.968H3.828v-1.375H5.17v-1.573h1.1v1.573h2.794c.286 0 .506-.07.66-.209.147-.139.22-.341.22-.605 0-.308-.08-.565-.242-.77l.979-.385z" fill="#fff"/></svg>