<svg width="122" height="318" fill="none" xmlns="http://www.w3.org/2000/svg"><path d="M32.888 291.744l.455.207.001-.002-.456-.205zm17.184-5.088l.272-.419-.003-.003-.269.422zm4.224 5.088l.458-.202-.002-.003-.456.205zm1.44 14.496h-.5v.5h.5v-.5zm9.264 0h.5v-.5H65v.5zm0 7.776v.5h.5v-.5H65zm-33.6 0h-.5v.5h.5v-.5zm16.512-19.44l.388-.316-.005-.006-.383.322zm-8.64 0l.383.322.004-.006-.387-.316zm-1.536 11.664h-.5v.5h.5v-.5zm11.664 0v.5h.5v-.5h-.5zm-17.5-6.768c0-2.921.487-5.424 1.443-7.521l-.91-.414c-1.028 2.255-1.533 4.904-1.533 7.935h1zm1.444-7.523c.957-2.131 2.306-3.748 4.04-4.874l-.544-.838c-1.914 1.242-3.381 3.017-4.408 5.302l.912.41zm4.04-4.874c1.732-1.124 3.794-1.695 6.208-1.695v-1c-2.578 0-4.836.613-6.752 1.857l.544.838zm6.208-1.695c2.38 0 4.445.571 6.211 1.698l.538-.844c-1.946-1.241-4.201-1.854-6.749-1.854v1zm6.208 1.695c1.734 1.126 3.083 2.743 4.04 4.874l.912-.41c-1.027-2.285-2.494-4.06-4.408-5.302l-.544.838zm4.039 4.871c.925 2.098 1.397 4.603 1.397 7.526h1c0-3.029-.488-5.676-1.482-7.93l-.915.404zm1.397 7.526v6.768h1v-6.768h-1zm.5 7.268H65v-1h-9.264v1zm8.764-.5v7.776h1v-7.776h-1zm.5 7.276H31.4v1H65v-1zm-33.1.5v-14.544h-1v14.544h1zm18-14.112c0-2.397-.508-4.304-1.6-5.644l-.775.632c.89 1.092 1.375 2.737 1.375 5.012h1zm-1.605-5.65c-1.136-1.348-2.727-2.002-4.703-2.002v1c1.736 0 3.025.562 3.938 1.646l.764-.644zm-4.703-2.002c-2.005 0-3.601.652-4.707 2.008l.774.632c.878-1.076 2.162-1.64 3.933-1.64v-1zm-4.703 2.002c-1.128 1.34-1.653 3.25-1.653 5.65h1c0-2.272.499-3.914 1.419-5.006l-.766-.644zm-1.653 5.65v6.336h1v-6.336h-1zm.5 6.836H49.4v-1H37.736v1zm12.164-.5v-6.336h-1v6.336h1zm4.3-53.409h.5v-.463l-.462-.035-.038.498zm0 19.536h-.5v.622l.607-.133-.107-.489zm3.792-2.496l-.408-.288.408.288zm.816-8.448l.468-.175-.003-.008-.465.183zm-1.92-2.928l-.339-.367-.376.346.355.368.36-.347zm4.32-3.984l.329-.376-.338-.295-.33.304.339.367zm2.496 18.384l.445.229.002-.005-.447-.224zm-4.752 5.184l.258.429-.258-.429zm-13.68.048l-.255.43.002.002.253-.432zm-4.752-4.944l.44-.237-.001-.002-.439.239zm-.096-13.92l-.442-.234.442.234zm4.704-4.8l.245.436.008-.004-.253-.432zm.768 15.888l-.384.32.384-.32zm3.936 2.112l-.076.495.576.088v-.583h-.5zm0-12.72h.5v-.584l-.578.09.078.494zm-3.888 2.112l.379.327.005-.007-.384-.32zm6.24-8.668l.038.002.11.006.392.027c.335.024.814.06 1.438.108l.076-.997c-1.23-.095-1.933-.146-2.054-.146v1zm1.516-.356v19.536h1v-19.536h-1zm.607 20.025c1.72-.378 3.092-1.28 4.093-2.696l-.816-.577c-.855 1.208-2.01 1.97-3.491 2.296l.214.977zm4.093-2.696c1-1.413 1.484-3.152 1.484-5.185h-1c0 1.872-.444 3.397-1.3 4.608l.816.577zm1.484-5.185c0-1.39-.199-2.636-.608-3.727l-.936.351c.359.957.544 2.079.544 3.376h1zm-.61-3.735c-.443-1.123-1.121-2.153-2.026-3.092l-.72.694c.823.854 1.425 1.775 1.815 2.765l.93-.367zm-2.047-2.377l4.32-3.984-.678-.735-4.32 3.984.678.735zm3.652-3.975c2.648 2.313 4.005 5.711 4.005 10.279h1c0-4.775-1.427-8.481-4.347-11.032l-.658.753zm4.005 10.279c0 2.847-.547 5.345-1.627 7.505l.894.447c1.16-2.32 1.733-4.975 1.733-7.952h-1zm-1.625 7.5c-1.112 2.163-2.634 3.82-4.565 4.984l.516.857c2.101-1.268 3.747-3.067 4.939-5.384l-.89-.457zm-4.565 4.984c-1.932 1.165-4.129 1.752-6.606 1.752v1c2.643 0 5.022-.628 7.122-1.895l-.516-.857zm-6.606 1.752c-2.447 0-4.63-.571-6.563-1.707l-.506.863c2.099 1.232 4.46 1.844 7.069 1.844v-1zm-6.56-1.706a12.1 12.1 0 01-4.568-4.751l-.88.474a13.099 13.099 0 004.937 5.137l.51-.86zm-4.57-4.753c-1.108-2.033-1.666-4.302-1.666-6.817h-1c0 2.669.594 5.105 1.789 7.296l.878-.479zm-1.666-6.817c0-2.453.527-4.66 1.574-6.629l-.884-.469c-1.13 2.126-1.69 4.496-1.69 7.098h1zm1.574-6.629c1.042-1.962 2.541-3.493 4.507-4.599l-.49-.871c-2.13 1.198-3.767 2.867-4.9 5.001l.883.469zm4.515-4.603c1.929-1.133 4.19-1.708 6.803-1.708v-1c-2.764 0-5.206.61-7.31 1.845l.507.863zm-1.425 11.184c0 1.797.511 3.339 1.556 4.592l.768-.64c-.875-1.05-1.324-2.356-1.324-3.952h-1zm1.556 4.592c1.048 1.258 2.475 2.014 4.244 2.287l.152-.989c-1.56-.24-2.756-.891-3.628-1.938l-.768.64zm4.82 1.792v-12.72h-1v12.72h1zm-.578-13.214c-1.738.273-3.148 1.031-4.194 2.286l.768.64c.874-1.049 2.056-1.698 3.581-1.938l-.154-.988zm-4.189 2.28c-1.078 1.252-1.609 2.779-1.609 4.55h1c0-1.556.46-2.845 1.367-3.897l-.758-.653zm-2.981-22.899v.5h1.554l-1.262-.906-.292.406zm-2.832-3.6l-.462.192.002.004.46-.196zm-.96-5.28v-.5h-.5v.5h.5zm6.912 0l.498.038.042-.538h-.54v.5zm1.728 6.72l.358-.349-.005-.004-.353.353zM65 238.294h.5v-.5H65v.5zm0 7.488v.5h.5v-.5H65zm-25.824 0h-.5v.5h.5v-.5zm0-7.152v-.5h-.5v.5h.5zm3.7-.406c-1.17-.839-2.057-1.964-2.664-3.39l-.92.392c.673 1.583 1.673 2.857 3 3.81l.584-.812zm-2.662-3.386c-.61-1.465-.922-3.157-.922-5.088h-1c0 2.038.329 3.865.998 5.472l.924-.384zm-1.422-4.588h6.912v-1h-6.912v1zm6.413-.538c-.063.829-.097 1.408-.097 1.718h1c0-.266.03-.807.095-1.642l-.998-.076zm-.097 1.718c0 2.242.639 4.062 1.97 5.394l.707-.707c-1.1-1.101-1.677-2.641-1.677-4.687h-1zm1.966 5.389c1.311 1.347 3.256 1.975 5.734 1.975v-1c-2.322 0-3.961-.588-5.018-1.673l-.716.698zm5.734 1.975H65v-1H52.808v1zm11.692-.5v7.488h1v-7.488h-1zm.5 6.988H39.176v1H65v-1zm-25.324.5v-7.152h-1v7.152h1zm-.5-6.652h3.408v-1h-3.408v1zm.576-24.148v.5h.5v-.5h-.5zm0-6.624v-.5h-.5v.5h.5zm5.76 0h.5v-.5h-.5v.5zm0 6.432h-.5v.5h.5v-.5zm19.488 0h.5v-.5H65v.5zm0 7.488v.5h.5v-.5H65zm-19.488 0v-.5h-.5v.5h.5zm0 3.984v.5h.5v-.5h-.5zm-5.76 0h-.5v.5h.5v-.5zm0-3.984h.5v-.5h-.5v.5zm-8.16-2.592l-.357.351.003.003.354-.354zm-2.208-10.56l.484.125.003-.009.001-.009-.488-.107zm1.008-2.544l.17-.47-.368-.134-.218.327.416.277zm5.424 1.968l.409.288.376-.535-.614-.223-.171.47zm4.436 6.432v-6.624h-1v6.624h1zm-.5-6.124h5.76v-1h-5.76v1zm5.26-.5v6.432h1v-6.432h-1zm.5 6.932H65v-1H45.512v1zm18.988-.5v7.488h1v-7.488h-1zm.5 6.988H45.512v1H65v-1zm-19.988.5v3.984h1v-3.984h-1zm.5 3.484h-5.76v1h5.76v-1zm-5.26.5v-3.984h-1v3.984h1zm-.5-4.484H38.6v1h1.152v-1zm-1.152 0c-2.84 0-5.039-.83-6.655-2.445l-.707.707c1.84 1.84 4.314 2.738 7.362 2.738v-1zm-6.651-2.442c-1.612-1.642-2.449-3.966-2.449-7.042h-1c0 3.26.891 5.865 2.735 7.743l.714-.701zm-2.449-7.042c0-1.081.124-2.095.368-3.043l-.968-.25a13.14 13.14 0 00-.4 3.293h1zm.372-3.061c.215-.98.531-1.766.936-2.373l-.832-.555c-.491.737-.847 1.647-1.08 2.714l.976.214zm.35-2.181l5.423 1.968.341-.94-5.423-1.968-.341.94zm5.185 1.211c-.673.955-1.003 2.066-1.003 3.311h1c0-1.059.278-1.964.82-2.736l-.817-.575zm-1.003 3.311c0 1.226.339 2.234 1.1 2.926.751.684 1.83.982 3.144.982v-1c-1.182 0-1.975-.27-2.471-.722-.488-.443-.773-1.14-.773-2.186h-1zm4.244 3.908h1.104v-1h-1.104v1zM54.2 177.884h.5v-.463l-.462-.036-.038.499zm0 19.536h-.5v.622l.607-.134-.107-.488zm3.792-2.496l-.408-.289.408.289zm.816-8.448l.468-.176-.003-.007-.465.183zm-1.92-2.928l-.339-.368-.376.347.355.368.36-.347zm4.32-3.984l.329-.377-.338-.295-.33.304.339.368zm2.496 18.384l.445.229.002-.006-.447-.223zm-4.752 5.184l.258.428-.258-.428zm-13.68.048l-.255.43.002.001.253-.431zm-4.752-4.944l.44-.237-.001-.003-.439.24zm-.096-13.92l-.442-.235.442.235zm4.704-4.8l.245.436.008-.005-.253-.431zm.768 15.888l-.384.32.384-.32zm3.936 2.112l-.076.494.576.089v-.583h-.5zm0-12.72h.5v-.585l-.578.091.078.494zm-3.888 2.112l.379.326.005-.006-.384-.32zm6.24-8.668l.038.001.11.007.392.027c.335.024.814.059 1.438.107l.076-.997c-1.23-.094-1.933-.145-2.054-.145v1zm1.516-.356v19.536h1v-19.536h-1zm.607 20.024c1.72-.378 3.092-1.28 4.093-2.695l-.816-.578c-.855 1.208-2.01 1.971-3.491 2.297l.214.976zm4.093-2.695c1-1.414 1.484-3.152 1.484-5.185h-1c0 1.871-.444 3.396-1.3 4.607l.816.578zm1.484-5.185c0-1.391-.199-2.636-.608-3.728l-.936.351c.359.957.544 2.08.544 3.377h1zm-.61-3.735c-.443-1.123-1.121-2.154-2.026-3.092l-.72.694c.823.853 1.425 1.775 1.815 2.764l.93-.366zm-2.047-2.378l4.32-3.984-.678-.735-4.32 3.984.678.735zm3.652-3.975c2.648 2.313 4.005 5.711 4.005 10.28h1c0-4.775-1.427-8.482-4.347-11.033l-.658.753zm4.005 10.28c0 2.847-.547 5.344-1.627 7.504l.894.447c1.16-2.319 1.733-4.974 1.733-7.951h-1zm-1.625 7.499c-1.112 2.164-2.634 3.82-4.565 4.985l.516.856c2.101-1.267 3.747-3.067 4.939-5.383l-.89-.458zm-4.565 4.985c-1.932 1.165-4.129 1.752-6.606 1.752v1c2.643 0 5.021-.629 7.122-1.896l-.516-.856zm-6.606 1.752c-2.447 0-4.63-.572-6.563-1.707l-.506.862c2.099 1.233 4.46 1.845 7.069 1.845v-1zm-6.56-1.706a12.104 12.104 0 01-4.568-4.751l-.88.474a13.106 13.106 0 004.937 5.137l.51-.86zm-4.57-4.754c-1.108-2.032-1.666-4.301-1.666-6.816h-1c0 2.669.594 5.104 1.789 7.295l.878-.479zm-1.666-6.816c0-2.454.527-4.66 1.574-6.63l-.884-.469c-1.13 2.127-1.69 4.497-1.69 7.099h1zm1.574-6.63c1.042-1.962 2.541-3.493 4.507-4.598l-.49-.872c-2.13 1.198-3.767 2.868-4.9 5.001l.883.469zm4.515-4.603c1.928-1.133 4.19-1.707 6.803-1.707v-1c-2.764 0-5.206.609-7.31 1.845l.507.862zm-1.425 11.185c0 1.797.511 3.338 1.556 4.592l.768-.64c-.875-1.051-1.324-2.357-1.324-3.952h-1zm1.556 4.592c1.048 1.257 2.475 2.014 4.244 2.286l.152-.988c-1.56-.24-2.756-.891-3.628-1.938l-.768.64zm4.82 1.792v-12.72h-1v12.72h1zm-.578-13.214c-1.738.273-3.148 1.031-4.194 2.286l.768.64c.874-1.049 2.056-1.699 3.581-1.938l-.154-.988zm-4.189 2.28c-1.078 1.251-1.609 2.778-1.609 4.55h1c0-1.557.46-2.845 1.367-3.898l-.758-.652zm18.139-20.787l.442.234.004-.008-.446-.226zm-4.752 5.136l.258.428.005-.003-.263-.425zm-13.728 0l-.263.425.005.003.258-.428zm-4.704-5.136l.445-.229-.002-.003-.443.232zm0-14.544l.434.248.005-.008-.439-.24zm4.848-4.464l.44-.237-.218-.407-.423.186.201.458zm3.12 5.808l.247.434.425-.241-.231-.43-.441.237zm-1.632 10.656l-.354.353.354-.353zm8.832-10.656l-.439-.24-.238.436.435.241.242-.437zm3.168-5.808l.206-.456-.423-.191-.222.407.439.24zm4.8 4.464l-.436.245.002.003.434-.248zm1.228 7.104c0 2.682-.545 5.083-1.626 7.213l.892.453c1.16-2.286 1.734-4.845 1.734-7.666h-1zm-1.622 7.206c-1.112 2.1-2.636 3.745-4.573 4.944l.526.851c2.095-1.297 3.739-3.076 4.93-5.327l-.883-.468zm-4.568 4.941c-1.932 1.165-4.129 1.753-6.606 1.753v1c2.643 0 5.021-.629 7.122-1.896l-.516-.857zm-6.606 1.753c-2.477 0-4.675-.588-6.606-1.753l-.516.857c2.1 1.267 4.48 1.896 7.122 1.896v-1zm-6.6-1.75c-1.937-1.198-3.444-2.841-4.523-4.939l-.89.457c1.16 2.254 2.79 4.035 4.886 5.333l.526-.851zm-4.525-4.942c-1.11-2.129-1.671-4.528-1.671-7.208h-1c0 2.824.592 5.384 1.785 7.671l.886-.463zm-1.671-7.208c0-2.648.56-4.928 1.662-6.856l-.868-.496c-1.202 2.103-1.794 4.56-1.794 7.352h1zm1.667-6.864c1.067-1.953 2.6-3.364 4.61-4.247l-.402-.915c-2.215.973-3.913 2.538-5.086 4.682l.878.48zm3.968-4.468l3.12 5.808.882-.473-3.12-5.808-.881.473zm3.314 5.137c-2.51 1.424-3.805 3.518-3.805 6.243h1c0-2.332 1.072-4.11 3.299-5.374l-.494-.869zm-3.805 6.243c0 2.073.685 3.82 2.066 5.201l.707-.707c-1.178-1.178-1.773-2.664-1.773-4.494h-1zm2.066 5.201c1.394 1.394 3.276 2.067 5.586 2.067v-1c-2.106 0-3.712-.608-4.879-1.774l-.707.707zm5.586 2.067c2.31 0 4.192-.673 5.585-2.067l-.707-.707c-1.166 1.166-2.772 1.774-4.878 1.774v1zm5.585-2.067c1.382-1.381 2.067-3.128 2.067-5.201h-1c0 1.83-.595 3.316-1.774 4.494l.707.707zm2.067-5.201c0-1.36-.316-2.577-.962-3.633-.645-1.055-1.603-1.923-2.848-2.613l-.484.875c1.123.622 1.94 1.378 2.48 2.259.538.88.814 1.912.814 3.112h1zm-3.613-5.569l3.168-5.808-.878-.479-3.168 5.808.878.479zm2.523-5.592c1.946.882 3.468 2.294 4.57 4.254l.872-.491c-1.202-2.136-2.88-3.7-5.03-4.674l-.412.911zm4.572 4.257c1.102 1.928 1.662 4.208 1.662 6.856h1c0-2.792-.592-5.249-1.794-7.352l-.868.496zm.53-27.975l.402-.297-.226-.305-.354.135.178.467zM65 126.26l.486-.118-.003-.01-.483.128zm-1.968 10.512l.364.343.003-.003-.367-.34zm-17.52 2.496v-.5h-.5v.5h.5zm0 3.984v.5h.5v-.5h-.5zm-5.76 0h-.5v.5h.5v-.5zm0-3.984h.5v-.5h-.5v.5zm-6.288 0h-.5v.5h.5v-.5zm0-7.488v-.5h-.5v.5h.5zm6.288 0v.5h.5v-.5h-.5zm0-6.432v-.5h-.5v.5h.5zm5.76 0h.5v-.5h-.5v.5zm0 6.432h-.5v.5h.5v-.5zm13.056-.816l.333.373.01-.009.01-.01-.353-.354zm-.096-5.424l-.178-.467-.628.24.41.532.396-.305zm4.878-1.719c.499.675.891 1.527 1.167 2.567l.966-.256c-.3-1.135-.74-2.108-1.329-2.905l-.804.594zm1.164 2.557c.246 1.014.37 2.094.37 3.242h1c0-1.22-.132-2.38-.398-3.478l-.972.236zm.37 3.242c0 2.989-.762 5.236-2.22 6.813l.735.679c1.678-1.816 2.485-4.336 2.485-7.492h-1zm-2.216 6.809c-1.445 1.534-3.598 2.339-6.548 2.339v1c3.13 0 5.585-.859 7.276-2.653l-.728-.686zm-6.548 2.339H45.512v1H56.12v-1zm-11.108.5v3.984h1v-3.984h-1zm.5 3.484h-5.76v1h5.76v-1zm-5.26.5v-3.984h-1v3.984h1zm-.5-4.484h-6.288v1h6.288v-1zm-5.788.5v-7.488h-1v7.488h1zm-.5-6.988h6.288v-1h-6.288v1zm6.788-.5v-6.432h-1v6.432h1zm-.5-5.932h5.76v-1h-5.76v1zm5.26-.5v6.432h1v-6.432h-1zm.5 6.932h10.512v-1H45.512v1zm10.512 0c1.17 0 2.15-.293 2.877-.943l-.666-.745c-.49.437-1.204.688-2.211.688v1zm2.898-.962c.692-.693 1.01-1.633 1.01-2.754h-1c0 .928-.258 1.587-.718 2.047l.708.707zm1.01-2.754c0-1.279-.348-2.398-1.064-3.329l-.792.61c.564.734.856 1.631.856 2.719h1zm-1.282-2.557l5.28-2.016-.356-.934-5.28 2.016.356.934zm28.822 166.745l.434.249.004-.009-.438-.24zm4.656-4.656l.243.437.003-.002-.246-.435zm13.968 0l.246-.435-.003-.002-.243.437zm4.656 4.656l.437-.243-.002-.003-.435.246zm-1.488 14.304l-.336-.37-.959.87h1.295v-.5zm12.048 0h.5v-.5h-.5v.5zm0 7.488v.5h.5v-.5h-.5zm-35.136 0h-.5v.5h.5v-.5zm0-7.152v-.5h-.5v.5h.5zm2.976 0v.5h1.387l-1.068-.885-.319.385zm15.168-11.52l-.345.362h.001l.344-.362zm-10.416 0l.34.367.01-.009-.35-.358zm0 9.456l-.345.362.345-.362zm10.416 0l.34.367.009-.009-.349-.358zm-18.028-6.048c0-2.319.54-4.408 1.614-6.279l-.868-.498c-1.166 2.033-1.746 4.296-1.746 6.777h1zm1.618-6.288c1.042-1.899 2.526-3.384 4.46-4.459l-.485-.874c-2.097 1.165-3.717 2.784-4.851 4.853l.876.48zm4.464-4.461c1.897-1.071 4.13-1.615 6.714-1.615v-1c-2.728 0-5.135.576-7.206 1.745l.492.87zm6.714-1.615c2.584 0 4.834.544 6.765 1.617l.486-.874c-2.101-1.167-4.523-1.743-7.251-1.743v1zm6.762 1.615a11.567 11.567 0 014.467 4.467l.87-.492a12.547 12.547 0 00-4.845-4.845l-.492.87zm4.465 4.464c1.044 1.873 1.569 3.964 1.569 6.285h1c0-2.479-.563-4.74-1.695-6.771l-.874.486zm1.569 6.285c0 3.182-.999 5.629-2.956 7.406l.672.74c2.203-1.999 3.284-4.736 3.284-8.146h-1zm-2.62 8.276h12.048v-1h-12.048v1zm11.548-.5v7.488h1v-7.488h-1zm.5 6.988H86.176v1h35.136v-1zm-34.636.5v-7.152h-1v7.152h1zm-.5-6.652h2.976v-1h-2.976v1zm3.295-.885c-2.1-1.74-3.179-4.288-3.179-7.727h-1c0 3.665 1.161 6.525 3.541 8.497l.638-.77zm17.269-6.431c0-2.044-.687-3.747-2.076-5.067l-.688.725c1.171 1.113 1.764 2.546 1.764 4.342h1zm-2.075-5.066c-1.424-1.354-3.3-2.01-5.577-2.01v1c2.075 0 3.687.592 4.887 1.734l.69-.724zm-5.577-2.01c-2.276 0-4.14.656-5.533 2.014l.698.716c1.167-1.138 2.76-1.73 4.835-1.73v-1zm-5.524 2.005c-1.422 1.318-2.128 3.023-2.128 5.071h1c0-1.792.606-3.223 1.808-4.337l-.68-.734zm-2.128 5.071c0 2.048.706 3.766 2.123 5.114l.69-.724c-1.207-1.148-1.813-2.598-1.813-4.39h-1zm2.124 5.114c1.393 1.324 3.255 1.962 5.528 1.962v-1c-2.08 0-3.673-.578-4.84-1.687l-.688.725zm5.528 1.962c2.273 0 4.148-.638 5.572-1.957l-.68-.734c-1.2 1.113-2.813 1.691-4.892 1.691v1zm5.581-1.966c1.384-1.35 2.071-3.066 2.071-5.11h-1c0 1.796-.593 3.248-1.769 4.394l.698.716zm-15.085-33.355v.5h1.554l-1.262-.906-.292.406zm-2.832-3.6l-.462.193.002.003.46-.196zm-.96-5.28v-.5h-.5v.5h.5zm6.912 0l.499.039.04-.539h-.539v.5zm1.728 6.72l.358-.348-.004-.005-.354.353zM112 271.995h.5v-.5h-.5v.5zm0 7.488v.5h.5v-.5h-.5zm-25.824 0h-.5v.5h.5v-.5zm0-7.152v-.5h-.5v.5h.5zm3.7-.406c-1.17-.839-2.057-1.964-2.664-3.389l-.92.391c.673 1.583 1.673 2.858 3 3.811l.584-.813zm-2.663-3.386c-.61-1.464-.921-3.157-.921-5.088h-1c0 2.038.329 3.865.998 5.473l.923-.385zm-1.421-4.588h6.912v-1h-6.912v1zm6.413-.538c-.063.829-.097 1.408-.097 1.718h1c0-.265.03-.807.094-1.641l-.996-.077zm-.097 1.718c0 2.242.639 4.062 1.97 5.394l.708-.707c-1.1-1.1-1.678-2.641-1.678-4.687h-1zm1.966 5.389c1.311 1.347 3.256 1.975 5.734 1.975v-1c-2.322 0-3.961-.587-5.018-1.672l-.716.697zm5.734 1.975H112v-1H99.808v1zm11.692-.5v7.488h1v-7.488h-1zm.5 6.988H86.176v1H112v-1zm-25.324.5v-7.152h-1v7.152h1zm-.5-6.652h3.408v-1h-3.408v1zm24.528-20.462l.441.237.004-.008-.445-.229zm-4.752 5.04l.258.429-.258-.429zm-13.728 0l-.258.429.258-.429zm-4.704-5.04l.443-.231-.001-.003-.442.234zm0-14.64l.44.237.003-.005-.443-.232zm4.704-5.04l-.258-.428.258.428zm13.728 0l.258-.428-.258.428zm4.752 5.04l.443-.231-.003-.005-.44.236zm-6.384 2.592l-.345.363h.001l.344-.363zm-10.416 0l.34.367.009-.009-.349-.358zm0 9.456l.35-.358-.005-.004-.345.362zm10.416 0l.345.363.004-.005-.349-.358zm7.564-4.752c0 2.65-.545 5.018-1.625 7.116l.89.457c1.16-2.254 1.735-4.782 1.735-7.573h-1zm-1.62 7.108c-1.111 2.067-2.634 3.68-4.57 4.848l.516.857c2.096-1.264 3.741-3.012 4.934-5.232l-.88-.473zm-4.57 4.848c-1.932 1.165-4.129 1.752-6.606 1.752v1c2.643 0 5.022-.628 7.122-1.895l-.516-.857zm-6.606 1.752c-2.477 0-4.674-.587-6.606-1.752l-.516.857c2.1 1.267 4.48 1.895 7.122 1.895v-1zm-6.606-1.752c-1.935-1.167-3.44-2.778-4.519-4.843l-.886.463c1.161 2.223 2.792 3.972 4.889 5.237l.516-.857zm-4.52-4.846c-1.11-2.096-1.67-4.462-1.67-7.11h-1c0 2.793.592 5.323 1.786 7.578l.884-.468zm-1.67-7.11c0-2.647.56-4.996 1.668-7.059l-.88-.473c-1.196 2.225-1.788 4.74-1.788 7.532h1zm1.671-7.064c1.079-2.065 2.584-3.676 4.52-4.843l-.517-.857c-2.097 1.265-3.728 3.014-4.89 5.237l.887.463zm4.52-4.843c1.93-1.165 4.128-1.753 6.605-1.753v-1c-2.643 0-5.022.629-7.122 1.896l.516.857zm6.605-1.753c2.477 0 4.674.588 6.606 1.753l.516-.857c-2.1-1.267-4.479-1.896-7.122-1.896v1zm6.606 1.753c1.936 1.168 3.459 2.78 4.57 4.848l.88-.473c-1.193-2.221-2.838-3.968-4.934-5.232l-.516.857zm4.567 4.843c1.078 2.064 1.623 4.415 1.623 7.064h1c0-2.79-.575-5.303-1.737-7.527l-.886.463zm-3.521 7.064c0-2.043-.687-3.747-2.076-5.066l-.688.725c1.171 1.113 1.764 2.545 1.764 4.341h1zm-2.075-5.066c-1.424-1.354-3.3-2.01-5.577-2.01v1c2.075 0 3.687.592 4.887 1.735l.69-.725zm-5.577-2.01c-2.276 0-4.14.656-5.533 2.014l.698.716c1.167-1.138 2.76-1.73 4.835-1.73v-1zm-5.524 2.006c-1.422 1.318-2.128 3.023-2.128 5.07h1c0-1.792.606-3.223 1.808-4.337l-.68-.733zm-2.128 5.07c0 2.048.706 3.766 2.123 5.115l.69-.725c-1.207-1.147-1.813-2.597-1.813-4.39h-1zm2.119 5.11c1.393 1.358 3.257 2.014 5.533 2.014v-1c-2.076 0-3.668-.592-4.835-1.73l-.698.716zm5.533 2.014c2.277 0 4.153-.656 5.577-2.009l-.69-.725c-1.2 1.142-2.812 1.734-4.887 1.734v1zm5.581-2.014c1.384-1.349 2.071-3.066 2.071-5.11h-1c0 1.797-.593 3.248-1.769 4.394l.698.716zm-17.197-47.987l.434.249.004-.008-.438-.241zm4.656-4.656l.243.437.003-.001-.246-.436zm13.968 0l.246-.435-.003-.002-.243.437zm4.656 4.656l.437-.243-.002-.003-.435.246zm-1.488 14.304l-.336-.37-.959.87h1.295v-.5zm12.048 0h.5v-.5h-.5v.5zm0 7.488v.5h.5v-.5h-.5zm-35.136 0h-.5v.5h.5v-.5zm0-7.152v-.5h-.5v.5h.5zm2.976 0v.5h1.387l-1.068-.885-.319.385zm15.168-11.52l-.345.363h.001l.344-.363zm-10.416 0l.34.367.009-.009-.349-.358zm0 9.456l-.345.363.345-.363zm10.416 0l.34.367.009-.009-.349-.358zm-18.028-6.048c0-2.318.54-4.408 1.614-6.279l-.868-.498c-1.166 2.033-1.746 4.296-1.746 6.777h1zm1.618-6.287c1.042-1.9 2.526-3.385 4.46-4.46l-.485-.874c-2.097 1.165-3.717 2.784-4.851 4.853l.876.481zm4.464-4.461c1.897-1.071 4.13-1.616 6.714-1.616v-1c-2.728 0-5.135.576-7.206 1.745l.492.871zm6.714-1.616c2.584 0 4.834.544 6.765 1.617l.486-.874c-2.101-1.167-4.523-1.743-7.251-1.743v1zm6.762 1.616a11.557 11.557 0 014.467 4.466l.87-.492a12.554 12.554 0 00-4.845-4.845l-.492.871zm4.465 4.464c1.044 1.872 1.569 3.963 1.569 6.284h1c0-2.478-.563-4.739-1.695-6.771l-.874.487zm1.569 6.284c0 3.182-.999 5.629-2.956 7.406l.672.74c2.203-1.999 3.284-4.736 3.284-8.146h-1zm-2.62 8.276h12.048v-1h-12.048v1zm11.548-.5v7.488h1v-7.488h-1zm.5 6.988H86.176v1h35.136v-1zm-34.636.5v-7.152h-1v7.152h1zm-.5-6.652h2.976v-1h-2.976v1zm3.295-.885c-2.1-1.74-3.179-4.288-3.179-7.727h-1c0 3.665 1.161 6.525 3.541 8.497l.638-.77zm17.269-6.431c0-2.043-.687-3.747-2.076-5.066l-.688.725c1.171 1.113 1.764 2.545 1.764 4.341h1zm-2.075-5.066c-1.424-1.354-3.3-2.01-5.577-2.01v1c2.075 0 3.687.592 4.887 1.735l.69-.725zm-5.577-2.01c-2.276 0-4.14.656-5.533 2.014l.698.716c1.167-1.138 2.76-1.73 4.835-1.73v-1zm-5.524 2.006c-1.422 1.318-2.128 3.022-2.128 5.07h1c0-1.792.606-3.223 1.808-4.337l-.68-.733zm-2.128 5.07c0 2.048.706 3.766 2.123 5.115l.69-.725c-1.207-1.147-1.813-2.597-1.813-4.39h-1zm2.124 5.115c1.393 1.323 3.255 1.961 5.528 1.961v-1c-2.08 0-3.673-.578-4.84-1.686l-.688.725zm5.528 1.961c2.273 0 4.148-.638 5.572-1.957l-.68-.733c-1.2 1.112-2.813 1.69-4.892 1.69v1zm5.581-1.966c1.384-1.349 2.071-3.066 2.071-5.11h-1c0 1.797-.593 3.248-1.769 4.394l.698.716zm6.035-31.146l.441.236.004-.008-.445-.228zm-4.752 5.04l.258.428-.258-.428zm-13.728 0l-.258.428.258-.428zm-4.704-5.04l.443-.232-.001-.002-.442.234zm0-14.64l.44.236.003-.005-.443-.231zm4.704-5.04l-.258-.429.258.429zm13.728 0l.258-.429-.258.429zm4.752 5.04l.443-.232-.003-.005-.44.237zm-6.384 2.592l-.345.362h.001l.344-.362zm-10.416 0l.34.366.009-.008-.349-.358zm0 9.456l.35-.358-.005-.005-.345.363zm10.416 0l.345.362.004-.004-.349-.358zm7.564-4.752c0 2.649-.545 5.017-1.625 7.115l.89.457c1.16-2.254 1.735-4.782 1.735-7.572h-1zm-1.62 7.107c-1.111 2.068-2.634 3.68-4.57 4.848l.516.857c2.096-1.264 3.741-3.012 4.934-5.232l-.88-.473zm-4.57 4.848c-1.932 1.165-4.129 1.753-6.606 1.753v1c2.643 0 5.022-.629 7.122-1.896l-.516-.857zm-6.606 1.753c-2.477 0-4.674-.588-6.606-1.753l-.516.857c2.1 1.267 4.48 1.896 7.122 1.896v-1zm-6.606-1.753c-1.935-1.167-3.44-2.778-4.519-4.843l-.886.463c1.161 2.223 2.792 3.972 4.889 5.237l.516-.857zm-4.52-4.845c-1.11-2.097-1.67-4.463-1.67-7.11h-1c0 2.792.592 5.322 1.786 7.578l.884-.468zm-1.67-7.11c0-2.648.56-4.997 1.668-7.06l-.88-.473c-1.196 2.225-1.788 4.74-1.788 7.533h1zm1.671-7.065c1.079-2.065 2.584-3.676 4.52-4.843l-.517-.857c-2.097 1.265-3.728 3.014-4.89 5.237l.887.463zm4.52-4.843c1.93-1.165 4.128-1.752 6.605-1.752v-1c-2.643 0-5.022.628-7.122 1.895l.516.857zm6.605-1.752c2.477 0 4.674.587 6.606 1.752l.516-.857c-2.1-1.267-4.479-1.895-7.122-1.895v1zm6.606 1.752c1.936 1.168 3.459 2.781 4.57 4.848l.88-.473c-1.193-2.22-2.838-3.968-4.934-5.232l-.516.857zm4.567 4.843c1.078 2.064 1.623 4.415 1.623 7.065h1c0-2.791-.575-5.304-1.737-7.528l-.886.463zm-3.521 7.065c0-2.044-.687-3.748-2.076-5.067l-.688.725c1.171 1.113 1.764 2.545 1.764 4.342h1zm-2.075-5.067c-1.424-1.353-3.3-2.009-5.577-2.009v1c2.075 0 3.686.592 4.887 1.734l.69-.725zm-5.577-2.009c-2.276 0-4.14.656-5.533 2.014l.698.716c1.167-1.138 2.76-1.73 4.835-1.73v-1zm-5.524 2.005c-1.422 1.318-2.128 3.023-2.128 5.071h1c0-1.793.606-3.224 1.808-4.338l-.68-.733zm-2.128 5.071c0 2.047.706 3.765 2.123 5.114l.69-.725c-1.207-1.147-1.813-2.597-1.813-4.389h-1zm2.119 5.11c1.393 1.358 3.257 2.014 5.533 2.014v-1c-2.076 0-3.668-.592-4.835-1.73l-.698.716zm5.533 2.014c2.277 0 4.153-.656 5.577-2.01l-.69-.725c-1.201 1.143-2.812 1.735-4.887 1.735v1zm5.581-2.014c1.384-1.35 2.071-3.067 2.071-5.11h-1c0 1.796-.593 3.247-1.769 4.394l.698.716zm-15.085-33.348v.5h1.554l-1.262-.906-.292.406zm-2.832-3.6l-.462.193.002.003.46-.196zm-.96-5.28v-.5h-.5v.5h.5zm6.912 0l.499.039.04-.539h-.539v.5zm1.728 6.72l.358-.348-.005-.005-.353.353zM112 148.018h.5v-.5h-.5v.5zm0 7.488v.5h.5v-.5h-.5zm-25.824 0h-.5v.5h.5v-.5zm0-7.152v-.5h-.5v.5h.5zm3.7-.406c-1.17-.839-2.057-1.964-2.664-3.389l-.92.391c.673 1.583 1.673 2.858 3 3.811l.584-.813zm-2.663-3.386c-.61-1.464-.921-3.157-.921-5.088h-1c0 2.038.329 3.865.998 5.473l.923-.385zm-1.421-4.588h6.912v-1h-6.912v1zm6.413-.538c-.063.829-.097 1.408-.097 1.718h1c0-.265.03-.806.094-1.641l-.996-.077zm-.097 1.718c0 2.243.639 4.062 1.97 5.394l.707-.707c-1.1-1.1-1.677-2.641-1.677-4.687h-1zm1.966 5.389c1.311 1.347 3.256 1.975 5.734 1.975v-1c-2.322 0-3.961-.587-5.018-1.672l-.716.697zm5.734 1.975H112v-1H99.808v1zm11.692-.5v7.488h1v-7.488h-1zm.5 6.988H86.176v1H112v-1zm-25.324.5v-7.152h-1v7.152h1zm-.5-6.652h3.408v-1h-3.408v1zm24.576-33.299l.402-.297-.226-.305-.354.135.178.467zm1.248 2.736l.486-.117-.003-.01-.483.127zm-1.968 10.512l.364.343.003-.003-.367-.34zm-17.52 2.496v-.5h-.5v.5h.5zm0 3.984v.5h.5v-.5h-.5zm-5.76 0h-.5v.5h.5v-.5zm0-3.984h.5v-.5h-.5v.5zm-6.288 0h-.5v.5h.5v-.5zm0-7.488v-.5h-.5v.5h.5zm6.288 0v.5h.5v-.5h-.5zm0-6.432v-.5h-.5v.5h.5zm5.76 0h.5v-.5h-.5v.5zm0 6.432h-.5v.5h.5v-.5zm13.056-.816l.333.373.011-.009.01-.01-.354-.354zm-.096-5.424l-.178-.467-.628.24.41.532.396-.305zm4.878-1.718c.499.675.891 1.526 1.167 2.566l.966-.255c-.3-1.136-.74-2.109-1.329-2.906l-.804.595zm1.164 2.556c.246 1.014.37 2.095.37 3.242h1c0-1.22-.132-2.379-.398-3.477l-.972.235zm.37 3.242c0 2.989-.762 5.236-2.219 6.813l.734.679c1.679-1.816 2.485-4.336 2.485-7.492h-1zm-2.216 6.81c-1.445 1.533-3.598 2.338-6.548 2.338v1c3.13 0 5.585-.858 7.276-2.653l-.728-.685zm-6.548 2.338H92.512v1h10.608v-1zm-11.108.5v3.984h1v-3.984h-1zm.5 3.484h-5.76v1h5.76v-1zm-5.26.5v-3.984h-1v3.984h1zm-.5-4.484h-6.288v1h6.288v-1zm-5.788.5v-7.488h-1v7.488h1zm-.5-6.988h6.288v-1h-6.288v1zm6.788-.5v-6.432h-1v6.432h1zm-.5-5.932h5.76v-1h-5.76v1zm5.26-.5v6.432h1v-6.432h-1zm.5 6.932h10.512v-1H92.512v1zm10.512 0c1.169 0 2.151-.293 2.877-.943l-.666-.745c-.49.438-1.204.688-2.211.688v1zm2.898-.962c.692-.692 1.01-1.633 1.01-2.754h-1c0 .928-.258 1.587-.718 2.047l.708.707zm1.01-2.754c0-1.279-.348-2.398-1.064-3.328l-.792.609c.564.734.856 1.631.856 2.719h1zm-1.282-2.556l5.28-2.016-.356-.935-5.28 2.016.356.935zm-19.474-8.607h-.5v.5h.5v-.5zm0-7.488v-.5h-.5v.5h.5zm25.824 0h.5v-.5h-.5v.5zm0 7.488v.5h.5v-.5h-.5zm-30.624-.384l.367.34-.367-.34zm-5.952 0l.367-.34-.367.34zm-.048-6.72l.374.332-.374-.332zm6 0l.367-.34-.007-.007-.36.347zm5.3 7.104v-7.488h-1v7.488h1zm-.5-6.988H112v-1H86.176v1zm25.324-.5v7.488h1v-7.488h-1zm.5 6.988H86.176v1H112v-1zm-29.924-3.244c0 1.273-.367 2.264-1.067 3.02l.734.68c.9-.972 1.333-2.221 1.333-3.7h-1zm-1.067 3.02c-.705.762-1.563 1.136-2.609 1.136v1c1.322 0 2.448-.489 3.343-1.456l-.734-.68zm-2.609 1.136c-1.046 0-1.904-.374-2.61-1.136l-.733.68c.895.967 2.02 1.456 3.343 1.456v-1zm-2.61-1.136c-.7-.756-1.066-1.747-1.066-3.02h-1c0 1.479.433 2.728 1.333 3.7l.734-.68zm-1.066-3.02c0-1.278.354-2.272 1.026-3.028l-.748-.664c-.864.972-1.278 2.218-1.278 3.692h1zm1.026-3.028c.673-.757 1.497-1.128 2.506-1.128v-1c-1.295 0-2.391.494-3.254 1.464l.748.664zm2.506-1.128c1.118 0 2.026.381 2.76 1.143l.72-.694c-.93-.966-2.102-1.449-3.48-1.449v1zm2.753 1.136c.7.756 1.067 1.747 1.067 3.02h1c0-1.479-.433-2.728-1.333-3.7l-.734.68zm29.695-14.537l.441.236.004-.008-.445-.228zm-4.752 5.04l.258.428-.258-.428zm-13.728 0l-.258.428.258-.428zm-4.704-5.04l.443-.232-.001-.002-.442.234zm0-14.64l.44.236.003-.005-.443-.231zm4.704-5.04l-.258-.428.258.428zm13.728 0l.258-.428-.258.428zm4.752 5.04l.443-.232-.003-.005-.44.237zm-6.384 2.592l-.345.362h.001l.344-.362zm-10.416 0l.34.367.009-.01-.349-.357zm0 9.456l.35-.358-.005-.005-.345.363zm10.416 0l.345.362.004-.004-.349-.358zm7.564-4.752c0 2.649-.545 5.017-1.625 7.115l.89.457c1.16-2.254 1.735-4.782 1.735-7.572h-1zm-1.62 7.107c-1.111 2.068-2.634 3.68-4.57 4.849l.516.856c2.096-1.264 3.741-3.011 4.934-5.232l-.88-.473zm-4.57 4.849c-1.932 1.164-4.129 1.752-6.606 1.752v1c2.643 0 5.022-.63 7.122-1.896l-.516-.856zm-6.606 1.752c-2.477 0-4.674-.588-6.606-1.752l-.516.856c2.1 1.267 4.48 1.896 7.122 1.896v-1zm-6.606-1.752c-1.935-1.168-3.44-2.779-4.519-4.844l-.886.463c1.161 2.223 2.792 3.972 4.889 5.237l.516-.856zm-4.52-4.846c-1.11-2.097-1.67-4.463-1.67-7.11h-1c0 2.792.592 5.322 1.786 7.578l.884-.468zm-1.67-7.11c0-2.648.56-4.997 1.668-7.06l-.88-.473c-1.196 2.225-1.788 4.74-1.788 7.533h1zm1.671-7.065c1.079-2.065 2.584-3.676 4.52-4.843l-.517-.857c-2.097 1.265-3.728 3.014-4.89 5.237l.887.463zm4.52-4.843c1.93-1.165 4.128-1.752 6.605-1.752v-1c-2.643 0-5.022.628-7.122 1.895l.516.857zm6.605-1.752c2.477 0 4.674.587 6.606 1.752l.516-.857c-2.1-1.267-4.479-1.895-7.122-1.895v1zm6.606 1.752c1.936 1.168 3.459 2.78 4.57 4.848l.88-.473c-1.193-2.22-2.838-3.968-4.934-5.232l-.516.857zm4.567 4.843c1.078 2.064 1.623 4.415 1.623 7.065h1c0-2.79-.575-5.304-1.737-7.528l-.886.463zm-3.521 7.065c0-2.044-.687-3.748-2.076-5.067l-.688.725c1.171 1.113 1.764 2.545 1.764 4.342h1zm-2.075-5.067c-1.424-1.353-3.3-2.01-5.577-2.01v1c2.075 0 3.686.593 4.887 1.735l.69-.725zm-5.577-2.01c-2.276 0-4.14.657-5.533 2.015l.698.716c1.167-1.138 2.76-1.73 4.835-1.73v-1zm-5.524 2.006c-1.422 1.318-2.128 3.023-2.128 5.07h1c0-1.792.606-3.223 1.808-4.337l-.68-.733zm-2.128 5.07c0 2.048.706 3.766 2.123 5.115l.69-.725c-1.207-1.147-1.813-2.597-1.813-4.39h-1zm2.119 5.11c1.393 1.359 3.257 2.015 5.533 2.015v-1c-2.076 0-3.668-.592-4.835-1.73l-.698.716zm5.533 2.015c2.277 0 4.153-.656 5.577-2.01l-.69-.725c-1.201 1.143-2.812 1.735-4.887 1.735v1zm5.581-2.014c1.384-1.35 2.071-3.067 2.071-5.11h-1c0 1.796-.593 3.247-1.769 4.394l.698.716zm-15.997-49.62l.356.351.003-.003-.359-.347zM112 33.302h.5v-.5h-.5v.5zm0 7.488v.5h.5v-.5h-.5zm-18.192 1.344l.33.377.005-.005-.335-.372zm.24 8.4l.349-.358-.005-.005-.344.363zM112 52.213h.5v-.5h-.5v.5zm0 7.489v.5h.5v-.5h-.5zm-25.824 0h-.5v.5h.5v-.5zm0-7.152v-.5h-.5v.5h.5zm3.024 0v.5h1.29l-.953-.87-.337.37zm-2.496-3.697l.466-.182-.004-.008-.462.19zm-.412-4.848c0-3.092.924-5.534 2.736-7.377l-.713-.701c-2.027 2.061-3.023 4.771-3.023 8.078h1zm2.74-7.38c1.795-1.855 4.492-2.824 8.184-2.824v-1c-3.86 0-6.859 1.016-8.903 3.129l.718.695zm8.184-2.824H112v-1H97.216v1zm14.284-.5v7.488h1v-7.488h-1zm.5 6.988H98.368v1H112v-1zm-13.632 0c-2.108 0-3.773.46-4.895 1.473l.67.742c.862-.778 2.237-1.215 4.225-1.215v-1zm-4.89 1.468c-1.158 1.014-1.706 2.463-1.706 4.265h1c0-1.59.476-2.734 1.365-3.512l-.658-.753zm-1.706 4.265c0 2.001.632 3.645 1.932 4.875l.688-.727c-1.069-1.01-1.62-2.374-1.62-4.148h-1zm1.927 4.87c1.28 1.244 3.155 1.822 5.533 1.822v-1c-2.23 0-3.81-.543-4.835-1.539l-.698.717zm5.533 1.822H112v-1H99.232v1zm12.268-.5v7.488h1v-7.488h-1zm.5 6.988H86.176v1H112v-1zm-25.324.5V52.55h-1v7.152h1zm-.5-6.652H89.2v-1h-3.024v1zm3.36-.87c-1.026-.937-1.816-2.103-2.366-3.509l-.932.365c.602 1.538 1.476 2.835 2.625 3.883l.674-.739zm-2.37-3.517c-.58-1.406-.874-2.956-.874-4.657h-1c0 1.818.314 3.5.95 5.038l.924-.381zm24.45-26.469l.483.128.002-.007-.485-.121zM109.6 27.09l-.211.454.392.181.237-.36-.418-.275zm-5.376-2.496l-.421-.27-.308.483.518.24.211-.453zm1.824-4.176l.48.141.002-.009-.482-.132zm-3.264-8.256l.469.174-.469-.174zm-.816 3.984l.495.075.001-.013-.496-.062zm-1.104 5.232l-.479-.145.479.145zm-2.208 3.6l.342.364.006-.005-.348-.359zm-8.832.096l-.3.4.002.001.298-.401zm-2.976-4.128l-.466.18v.003l.466-.183zM86.416 9.09l.487.113.002-.01-.489-.103zm1.632-4.512l.212-.453-.41-.192-.232.39.43.255zm5.328 2.496l.436.245.264-.47-.488-.228-.212.453zm-1.248 11.04l-.436.244.436-.244zm3.408-.096l-.469-.174.469.174zm.912-4.128l-.493-.082-.001.007.494.075zM97.6 8.706l.478.148.003-.01-.481-.138zm2.16-3.504l.342.364-.342-.364zm8.688-.048l.305-.396-.305.396zm2.928 4.224l.469-.173-.002-.004-.467.177zm.508 6.528c0 2.104-.251 4.159-.753 6.167l.97.242a26.33 26.33 0 00.783-6.409h-1zm-.751 6.16c-.536 2.017-1.19 3.594-1.951 4.75l.836.549c.839-1.277 1.529-2.964 2.081-5.043l-.966-.256zm-1.322 4.57l-5.376-2.495-.422.907 5.376 2.496.422-.907zm-5.166-1.773c.767-1.2 1.392-2.637 1.883-4.304l-.96-.282c-.469 1.597-1.06 2.944-1.765 4.048l.842.538zm1.885-4.313c.459-1.671.69-3.316.69-4.932h-1c0 1.52-.217 3.075-.654 4.668l.964.264zm.69-4.932c0-1.61-.196-2.89-.64-3.786-.225-.455-.522-.827-.904-1.084a2.295 2.295 0 00-1.308-.382v1a1.3 1.3 0 01.75.212c.206.139.399.36.566.698.34.688.536 1.783.536 3.342h1zm-2.852-5.252a1.95 1.95 0 00-1.265.437c-.352.289-.607.698-.788 1.185l.938.348c.139-.377.308-.616.484-.759a.95.95 0 01.631-.211v-1zm-2.053 1.622c-.341.92-.618 2.295-.843 4.096l.992.124c.223-1.783.49-3.064.789-3.872l-.938-.348zm-.841 4.083c-.318 2.099-.682 3.817-1.089 5.162l.958.29c.425-1.407.797-3.177 1.119-5.302l-.988-.15zm-1.089 5.162a7.78 7.78 0 01-2.077 3.386l.696.718a8.79 8.79 0 002.339-3.814l-.958-.29zm-2.071 3.38c-.935.879-2.3 1.353-4.17 1.353v1c2.034 0 3.677-.518 4.854-1.624l-.684-.728zm-4.17 1.353c-1.53 0-2.864-.433-4.022-1.293l-.596.802c1.338.996 2.884 1.491 4.618 1.491v-1zm-4.02-1.292c-1.192-.894-2.134-2.188-2.81-3.91l-.931.365c.73 1.86 1.773 3.319 3.141 4.345l.6-.8zm-2.81-3.908c-.676-1.754-1.022-3.834-1.022-6.252h-1c0 2.51.358 4.718 1.09 6.612l.932-.36zm-1.022-6.252c0-1.786.204-3.556.611-5.31l-.974-.227a24.412 24.412 0 00-.637 5.537h1zm.613-5.321c.377-1.788.905-3.236 1.573-4.36l-.86-.51c-.74 1.244-1.3 2.804-1.691 4.664l.978.206zm.93-4.162l5.329 2.496.424-.906-5.328-2.496-.424.906zm5.105 1.798c-1.323 2.349-1.984 4.914-1.984 7.685h1c0-2.605.62-5 1.856-7.195l-.872-.49zm-1.984 7.685c0 1.63.225 2.933.736 3.844l.872-.488c-.385-.689-.608-1.786-.608-3.356h-1zm.736 3.844c.505.903 1.224 1.456 2.164 1.456v-1c-.468 0-.901-.247-1.292-.944l-.872.488zm2.164 1.456c.495 0 .947-.136 1.325-.428.374-.288.641-.7.824-1.194l-.938-.348c-.137.37-.31.606-.496.75-.182.14-.41.22-.715.22v1zm2.149-1.622c.339-.915.648-2.333.937-4.227l-.988-.15c-.287 1.882-.585 3.216-.887 4.03l.938.347zm.936-4.22c.35-2.1.73-3.804 1.137-5.118l-.956-.296c-.425 1.374-.813 3.126-1.167 5.25l.986.164zm1.14-5.129c.358-1.254 1.029-2.344 2.021-3.277l-.684-.728c-1.12 1.051-1.889 2.297-2.299 3.73l.962.275zm2.021-3.277c.938-.88 2.273-1.352 4.074-1.352v-1c-1.975 0-3.584.52-4.758 1.624l.684.728zm4.074-1.352c1.492 0 2.808.445 3.967 1.336l.61-.792c-1.337-1.029-2.869-1.544-4.577-1.544v1zm3.967 1.336c1.158.89 2.086 2.214 2.765 4.005l.935-.354c-.728-1.92-1.752-3.414-3.09-4.443l-.61.792zm2.764 4c.646 1.756.977 3.87.977 6.356h1c0-2.57-.341-4.808-1.039-6.7l-.938.345zM3.3 307.276H11v1.177l-5.214 4.246H11v1.419H3.3v-1.177l5.214-4.246H3.3v-1.419zm4.796-8.113c.095 0 .231.007.407.022v4.609a1.63 1.63 0 001.034-.627c.25-.345.374-.77.374-1.276 0-.645-.213-1.177-.638-1.595l.847-.737c.315.264.554.598.715 1.001.161.403.242.858.242 1.364 0 .645-.128 1.214-.385 1.705a2.822 2.822 0 01-1.067 1.144 3.092 3.092 0 01-1.562.396 3.074 3.074 0 01-1.54-.385 2.798 2.798 0 01-1.078-1.089 3.162 3.162 0 01-.385-1.562c0-.572.128-1.082.385-1.529.25-.455.605-.807 1.067-1.056.455-.257.983-.385 1.584-.385zm-1.936 2.97c0 .44.132.814.396 1.122.257.301.601.484 1.034.55v-3.333c-.425.059-.77.238-1.034.539-.264.301-.396.675-.396 1.122zm4.84-8.529l-2.035 1.507L11 296.629v1.518l-2.981-2.288-2.893 2.189v-1.529l1.925-1.441-1.925-1.441v-1.485l2.871 2.2L11 292.053v1.551zm-.319-6.757c.132.161.231.359.297.594.066.227.099.469.099.726 0 .645-.169 1.144-.506 1.496-.337.352-.829.528-1.474.528H6.27v.968h-1.1v-.968H3.828v-1.375H5.17v-1.573h1.1v1.573h2.794c.286 0 .506-.07.66-.209.147-.139.22-.341.22-.605 0-.308-.08-.565-.242-.77l.979-.385zM3.3 278.056c0-.668.11-1.247.33-1.738.22-.499.535-.88.946-1.144.41-.264.898-.396 1.463-.396.557 0 1.045.132 1.463.396.41.264.726.645.946 1.144.22.491.33 1.07.33 1.738v1.738H11v1.43H3.3v-3.168zm4.268.066c0-.624-.132-1.097-.396-1.419-.264-.323-.642-.484-1.133-.484s-.869.161-1.133.484c-.264.322-.396.795-.396 1.419v1.672h3.058v-1.672zm-1.584-6.556c-.616-.396-.924-1.092-.924-2.09h1.309a1.754 1.754 0 00-.033.319c0 .536.158.954.473 1.254.308.301.755.451 1.342.451H11v1.375H5.126v-1.309h.858zm5.093-6.502a3.33 3.33 0 01-.385 1.606c-.257.476-.612.85-1.067 1.122a3.092 3.092 0 01-1.562.396 3.03 3.03 0 01-1.551-.396 2.866 2.866 0 01-1.067-1.122 3.334 3.334 0 01-.385-1.606c0-.602.128-1.141.385-1.617a2.778 2.778 0 011.067-1.111 2.962 2.962 0 011.551-.407c.58 0 1.1.135 1.562.407.455.264.81.634 1.067 1.111.257.476.385 1.015.385 1.617zm-1.177 0c0-.506-.169-.924-.506-1.254-.337-.33-.781-.495-1.331-.495-.55 0-.994.165-1.331.495-.337.33-.506.748-.506 1.254s.169.924.506 1.254c.337.322.781.484 1.331.484.55 0 .994-.162 1.331-.484.337-.33.506-.748.506-1.254zm3.311-4.505c0 .579-.114 1.019-.341 1.32l-1.023-.396c.154-.206.231-.473.231-.803 0-.257-.08-.451-.242-.583-.154-.14-.385-.209-.693-.209H5.126v-1.375h5.984c.653 0 1.166.179 1.54.539.374.359.561.861.561 1.507zm-9.053-1.353a.896.896 0 01-.231.627.792.792 0 01-.594.253.758.758 0 01-.583-.253.873.873 0 01-.242-.627c0-.25.077-.459.231-.627a.71.71 0 01.561-.253.847.847 0 01.858.88zm3.938-8.678c.095 0 .231.007.407.022v4.609a1.63 1.63 0 001.034-.627c.25-.345.374-.77.374-1.276 0-.646-.213-1.177-.638-1.595l.847-.737c.315.264.554.597.715 1.001.161.403.242.858.242 1.364 0 .645-.128 1.213-.385 1.705a2.828 2.828 0 01-1.067 1.144 3.092 3.092 0 01-1.562.396 3.084 3.084 0 01-1.54-.385 2.797 2.797 0 01-1.078-1.089 3.162 3.162 0 01-.385-1.562c0-.572.128-1.082.385-1.529.25-.455.605-.807 1.067-1.056.455-.257.983-.385 1.584-.385zm-1.936 2.97c0 .44.132.814.396 1.122.257.3.601.484 1.034.55v-3.333c-.425.058-.77.238-1.034.539-.264.3-.396.674-.396 1.122zm4.917-7.646c0 .609-.128 1.155-.385 1.639a2.837 2.837 0 01-1.067 1.133 3.03 3.03 0 01-1.562.407 2.97 2.97 0 01-1.551-.407 2.853 2.853 0 01-1.067-1.122c-.257-.484-.385-1.034-.385-1.65 0-.579.117-1.085.352-1.518.235-.44.572-.77 1.012-.99l.616 1.056a1.623 1.623 0 00-.605.638 1.66 1.66 0 00-.209.825c0 .513.169.939.506 1.276.33.337.774.506 1.331.506.557 0 1.005-.165 1.342-.495.33-.337.495-.766.495-1.287 0-.301-.066-.576-.198-.825a1.708 1.708 0 00-.616-.638l.616-1.056c.44.227.781.561 1.023 1.001.235.433.352.935.352 1.507zm-.396-7.963c.132.161.231.359.297.594.066.227.099.469.099.726 0 .645-.169 1.144-.506 1.496-.337.352-.829.528-1.474.528H6.27v.968h-1.1v-.968H3.828v-1.375H5.17v-1.573h1.1v1.573h2.794c.286 0 .506-.07.66-.209.147-.139.22-.341.22-.605 0-.308-.08-.565-.242-.77l.979-.385z" fill="#fff"/></svg>