<svg width="21" height="354" fill="none" xmlns="http://www.w3.org/2000/svg"><path d="M4.4 347.052c0-1.116.186-2.082.558-2.898.372-.828.9-1.464 1.584-1.908.684-.444 1.494-.666 2.43-.666.924 0 1.734.222 2.43.666.684.444 1.212 1.08 1.584 1.908.36.816.54 1.782.54 2.898v2.538H17v2.916H4.4v-5.454zm6.75.162c0-.876-.186-1.542-.558-1.998-.384-.456-.924-.684-1.62-.684-.708 0-1.248.228-1.62.684-.384.456-.576 1.122-.576 1.998v2.376h4.374v-2.376zm1.044-17.706c.036 0 .288.018.756.054v7.326a2.282 2.282 0 001.422-.936c.348-.492.522-1.104.522-1.836 0-.504-.072-.948-.216-1.332a3.345 3.345 0 00-.72-1.098l1.62-1.494c1.044.912 1.566 2.244 1.566 3.996 0 1.092-.21 2.058-.63 2.898-.432.84-1.026 1.488-1.782 1.944-.756.456-1.614.684-2.574.684-.948 0-1.8-.222-2.556-.666a4.726 4.726 0 01-1.782-1.854c-.432-.792-.648-1.674-.648-2.646 0-.948.204-1.806.612-2.574a4.393 4.393 0 011.764-1.8c.756-.444 1.638-.666 2.646-.666zm-2.898 5.022c0 .636.18 1.17.54 1.602.36.432.852.696 1.476.792v-4.77c-.612.096-1.098.36-1.458.792-.372.432-.558.96-.558 1.584zm-.702-10.294a3.13 3.13 0 01-1.062-1.35c-.24-.576-.36-1.236-.36-1.98h2.592c-.024.312-.036.522-.036.63 0 .804.228 1.434.684 1.89.444.456 1.116.684 2.016.684H17v2.808H7.316v-2.682h1.278zm-1.062-8.868v-2.484h2.16v2.412H17v2.808H9.692v1.494h-2.16v-1.494H7.1c-1.104 0-1.98-.324-2.628-.972-.648-.66-.972-1.584-.972-2.772 0-.42.048-.816.144-1.188.084-.384.21-.702.378-.954l2.034.738a1.92 1.92 0 00-.342 1.134c0 .852.468 1.278 1.404 1.278h.414zm4.662-13.966c.036 0 .288.018.756.054v7.326a2.282 2.282 0 001.422-.936c.348-.492.522-1.104.522-1.836 0-.504-.072-.948-.216-1.332a3.345 3.345 0 00-.72-1.098l1.62-1.494c1.044.912 1.566 2.244 1.566 3.996 0 1.092-.21 2.058-.63 2.898-.432.84-1.026 1.488-1.782 1.944-.756.456-1.614.684-2.574.684-.948 0-1.8-.222-2.556-.666a4.726 4.726 0 01-1.782-1.854c-.432-.792-.648-1.674-.648-2.646 0-.948.204-1.806.612-2.574a4.393 4.393 0 011.764-1.8c.756-.444 1.638-.666 2.646-.666zm-2.898 5.022c0 .636.18 1.17.54 1.602.36.432.852.696 1.476.792v-4.77c-.612.096-1.098.36-1.458.792-.372.432-.558.96-.558 1.584zm7.848-12.291c0 1.032-.21 1.962-.63 2.79a4.929 4.929 0 01-1.782 1.926c-.756.456-1.614.684-2.574.684-.96 0-1.818-.228-2.574-.684a4.8 4.8 0 01-1.764-1.926c-.432-.828-.648-1.758-.648-2.79 0-1.02.216-1.908.648-2.664a3.734 3.734 0 011.818-1.674l1.17 2.178c-.888.504-1.332 1.23-1.332 2.178 0 .732.24 1.338.72 1.818s1.134.72 1.962.72c.828 0 1.482-.24 1.962-.72s.72-1.086.72-1.818c0-.96-.444-1.686-1.332-2.178l1.188-2.178c.768.348 1.368.906 1.8 1.674.432.756.648 1.644.648 2.664zm-.612-13.061a3 3 0 01.468 1.026c.096.396.144.816.144 1.26 0 1.152-.294 2.046-.882 2.682-.588.624-1.452.936-2.592.936H9.692v1.494h-2.16v-1.494H5.174v-2.808h2.358v-2.412h2.16v2.412h3.942c.408 0 .726-.102.954-.306.216-.216.324-.516.324-.9 0-.444-.12-.822-.36-1.134l1.98-.756zm-9.36-13.838c0-.9.21-1.716.63-2.448a4.366 4.366 0 011.746-1.746c.744-.42 1.614-.63 2.61-.63.996 0 1.872.21 2.628.63a4.521 4.521 0 011.746 1.746c.408.732.612 1.548.612 2.448 0 1.236-.39 2.208-1.17 2.916h4.518v2.808H7.316v-2.682h1.116c-.84-.696-1.26-1.71-1.26-3.042zm7.668.486c0-.72-.24-1.308-.72-1.764-.492-.468-1.146-.702-1.962-.702-.816 0-1.464.234-1.944.702-.492.456-.738 1.044-.738 1.764s.246 1.314.738 1.782c.48.456 1.128.684 1.944.684.816 0 1.47-.228 1.962-.684.48-.468.72-1.062.72-1.782zm-6.246-10.592a3.13 3.13 0 01-1.062-1.35c-.24-.576-.36-1.236-.36-1.98h2.592c-.024.312-.036.522-.036.63 0 .804.228 1.434.684 1.89.444.456 1.116.684 2.016.684H17v2.808H7.316v-2.682h1.278zm8.55-10.24c0 1.02-.21 1.938-.63 2.754a4.829 4.829 0 01-1.782 1.89c-.756.456-1.614.684-2.574.684-.96 0-1.818-.228-2.574-.684a4.702 4.702 0 01-1.764-1.89c-.432-.816-.648-1.734-.648-2.754s.216-1.932.648-2.736a4.702 4.702 0 011.764-1.89c.756-.456 1.614-.684 2.574-.684.96 0 1.818.228 2.574.684a4.829 4.829 0 011.782 1.89c.42.804.63 1.716.63 2.736zm-2.304 0c0-.72-.24-1.308-.72-1.764-.492-.468-1.146-.702-1.962-.702-.816 0-1.464.234-1.944.702-.492.456-.738 1.044-.738 1.764s.246 1.314.738 1.782c.48.468 1.128.702 1.944.702.816 0 1.47-.234 1.962-.702.48-.468.72-1.062.72-1.782zm-7.668-13.631c0-.9.21-1.716.63-2.448a4.366 4.366 0 011.746-1.746c.744-.42 1.614-.63 2.61-.63.996 0 1.872.21 2.628.63a4.521 4.521 0 011.746 1.746c.408.732.612 1.548.612 2.448 0 1.236-.39 2.208-1.17 2.916h4.518v2.808H7.316v-2.682h1.116c-.84-.696-1.26-1.71-1.26-3.042zm7.668.486c0-.72-.24-1.308-.72-1.764-.492-.468-1.146-.702-1.962-.702-.816 0-1.464.234-1.944.702-.492.456-.738 1.044-.738 1.764s.246 1.314.738 1.782c.48.456 1.128.684 1.944.684.816 0 1.47-.228 1.962-.684.48-.468.72-1.062.72-1.782zm2.304-12.517c0 1.02-.21 1.938-.63 2.754a4.829 4.829 0 01-1.782 1.89c-.756.456-1.614.684-2.574.684-.96 0-1.818-.228-2.574-.684a4.702 4.702 0 01-1.764-1.89c-.432-.816-.648-1.734-.648-2.754s.216-1.932.648-2.736a4.702 4.702 0 011.764-1.89c.756-.456 1.614-.684 2.574-.684.96 0 1.818.228 2.574.684a4.829 4.829 0 011.782 1.89c.42.804.63 1.716.63 2.736zm-2.304 0c0-.72-.24-1.308-.72-1.764-.492-.468-1.146-.702-1.962-.702-.816 0-1.464.234-1.944.702-.492.456-.738 1.044-.738 1.764s.246 1.314.738 1.782c.48.468 1.128.702 1.944.702.816 0 1.47-.234 1.962-.702.48-.468.72-1.062.72-1.782zm-6.246-10.589a3.13 3.13 0 01-1.062-1.35c-.24-.576-.36-1.236-.36-1.98h2.592c-.024.312-.036.522-.036.63 0 .804.228 1.434.684 1.89.444.456 1.116.684 2.016.684H17v2.808H7.316v-2.682h1.278zm7.938-12.3a3 3 0 01.468 1.026c.096.396.144.816.144 1.26 0 1.152-.294 2.046-.882 2.682-.588.624-1.452.936-2.592.936H9.692v1.494h-2.16v-1.494H5.174v-2.808h2.358v-2.412h2.16v2.412h3.942c.408 0 .726-.102.954-.306.216-.216.324-.516.324-.9 0-.444-.12-.822-.36-1.134l1.98-.756zm-9.216-2.296v-2.808H17v2.808H7.316zm-1.35-1.404c0 .516-.15.936-.45 1.26a1.46 1.46 0 01-1.116.486 1.46 1.46 0 01-1.116-.486c-.3-.324-.45-.744-.45-1.26s.144-.936.432-1.26a1.385 1.385 0 011.08-.486c.468 0 .858.162 1.17.486.3.324.45.744.45 1.26zm11.178-9.338c0 1.02-.21 1.938-.63 2.754a4.829 4.829 0 01-1.782 1.89c-.756.456-1.614.684-2.574.684-.96 0-1.818-.228-2.574-.684a4.702 4.702 0 01-1.764-1.89c-.432-.816-.648-1.734-.648-2.754s.216-1.932.648-2.736a4.702 4.702 0 011.764-1.89c.756-.456 1.614-.684 2.574-.684.96 0 1.818.228 2.574.684a4.829 4.829 0 011.782 1.89c.42.804.63 1.716.63 2.736zm-2.304 0c0-.72-.24-1.308-.72-1.764-.492-.468-1.146-.702-1.962-.702-.816 0-1.464.234-1.944.702-.492.456-.738 1.044-.738 1.764s.246 1.314.738 1.782c.48.468 1.128.702 1.944.702.816 0 1.47-.234 1.962-.702.48-.468.72-1.062.72-1.782zm-7.668-13.793c0-1.2.36-2.166 1.08-2.898.72-.744 1.788-1.116 3.204-1.116H17v2.808h-5.112c-.768 0-1.338.168-1.71.504-.384.336-.576.822-.576 1.458 0 .708.222 1.272.666 1.692.432.42 1.08.63 1.944.63H17v2.808H7.316v-2.682H8.45a3.636 3.636 0 01-.936-1.386 4.717 4.717 0 01-.342-1.818zm9.972-10.538c0 .804-.096 1.59-.288 2.358-.204.768-.456 1.38-.756 1.836l-2.016-.936c.276-.432.504-.954.684-1.566a6.782 6.782 0 00.252-1.8c0-1.188-.294-1.782-.882-1.782-.276 0-.474.162-.594.486-.12.324-.222.822-.306 1.494-.12.792-.258 1.446-.414 1.962a3.107 3.107 0 01-.828 1.35c-.396.372-.96.558-1.692.558a2.642 2.642 0 01-1.62-.522c-.48-.36-.852-.876-1.116-1.548-.264-.684-.396-1.488-.396-2.412 0-.684.078-1.362.234-2.034.144-.684.348-1.248.612-1.692l1.998.936a5.588 5.588 0 00-.72 2.79c0 .6.084 1.05.252 1.35.168.3.384.45.648.45.3 0 .51-.162.63-.486.12-.324.234-.84.342-1.548.132-.792.276-1.44.432-1.944.144-.504.414-.942.81-1.314.396-.372.948-.558 1.656-.558.6 0 1.134.18 1.602.54.468.36.834.888 1.098 1.584.252.684.378 1.5.378 2.448z" fill="#fff"/></svg>