<svg width="11" height="155" fill="none" xmlns="http://www.w3.org/2000/svg"><path opacity=".32" d="M8.096 81.656c0 .57-.123 1.088-.368 1.552a2.85 2.85 0 01-1.032 1.088 2.887 2.887 0 01-1.496.392 2.84 2.84 0 01-1.488-.392 2.774 2.774 0 01-1.032-1.088 3.229 3.229 0 01-.376-1.56c0-.485.085-.923.256-1.312.17-.395.416-.725.736-.992l.768.832c-.437.379-.656.848-.656 1.408 0 .347.077.656.232.928.15.272.36.485.632.64.272.15.581.224.928.224.347 0 .656-.075.928-.224.272-.155.485-.368.64-.64.15-.272.224-.581.224-.928 0-.56-.221-1.03-.664-1.408l.768-.832a2.6 2.6 0 01.744.992c.17.395.256.835.256 1.32zM6.96 72.533H8v4.336H2.4v-4.232h1.04v2.944h1.216v-2.6h1.008v2.6H6.96v-3.048zm1.136-5.328c0 .582-.125 1.107-.376 1.576a2.83 2.83 0 01-1.032 1.096 2.871 2.871 0 01-1.488.392 2.82 2.82 0 01-1.48-.392 2.817 2.817 0 01-1.04-1.096 3.292 3.292 0 01-.376-1.576c0-.581.125-1.104.376-1.568a2.818 2.818 0 012.52-1.496c.55 0 1.045.134 1.488.4.437.267.781.632 1.032 1.096.25.464.376.987.376 1.568zm-1.104 0c0-.33-.075-.63-.224-.896a1.637 1.637 0 00-.64-.624 1.845 1.845 0 00-.928-.232 1.85 1.85 0 00-.928.232c-.272.15-.483.358-.632.624a1.753 1.753 0 00-.232.896c0 .33.077.63.232.896.15.267.36.478.632.632.272.15.581.224.928.224.347 0 .656-.074.928-.224.272-.154.485-.365.64-.632.15-.266.224-.565.224-.896zm1.104-12.183c0 .57-.123 1.088-.368 1.552-.25.458-.595.821-1.032 1.088a2.886 2.886 0 01-1.496.392c-.555 0-1.05-.131-1.488-.392a2.774 2.774 0 01-1.032-1.088 3.229 3.229 0 01-.376-1.56c0-.486.085-.923.256-1.312a2.63 2.63 0 01.736-.992l.768.832c-.437.378-.656.848-.656 1.408 0 .346.077.656.232.928.15.272.36.485.632.64.272.149.581.224.928.224.347 0 .656-.075.928-.224.272-.155.485-.368.64-.64a1.89 1.89 0 00.224-.928c0-.56-.221-1.03-.664-1.408l.768-.832c.325.266.573.597.744.992a3.3 3.3 0 01.256 1.32zm0-7.382c0 .581-.125 1.106-.376 1.576-.25.464-.595.829-1.032 1.096a2.871 2.871 0 01-1.488.392 2.83 2.83 0 01-1.48-.392 2.817 2.817 0 01-1.04-1.096 3.292 3.292 0 01-.376-1.576c0-.582.125-1.104.376-1.568a2.818 2.818 0 012.52-1.496c.55 0 1.045.133 1.488.4.437.266.781.632 1.032 1.096.25.464.376.986.376 1.568zm-1.104 0c0-.331-.075-.63-.224-.896a1.637 1.637 0 00-.64-.624 1.845 1.845 0 00-.928-.232 1.84 1.84 0 00-.928.232 1.575 1.575 0 00-.632.624 1.753 1.753 0 00-.232.896c0 .33.077.629.232.896.15.266.36.477.632.632.272.149.581.224.928.224.347 0 .656-.075.928-.224.272-.155.485-.366.64-.632.15-.267.224-.566.224-.896zM8 36.906l-3.36.008 2.768 1.648v.584l-2.696 1.64H8v1.216H2.4V40.93l3.48-2.096L2.4 36.77v-1.064L8 35.69v1.216zm-5.6-6.569c0-.496.083-.925.248-1.288.165-.368.4-.65.704-.848.304-.197.664-.296 1.08-.296.41 0 .77.099 1.08.296.304.197.539.48.704.848.16.363.24.792.24 1.288v1.128H8v1.296H2.4v-2.424zm3 .072c0-.39-.083-.685-.248-.888-.17-.203-.41-.304-.72-.304-.315 0-.555.101-.72.304-.17.203-.256.499-.256.888v1.056H5.4v-1.056zm1.4-8.436v2.6l1.2.496v1.328l-5.6-2.496v-1.28L8 20.117v1.36l-1.2.496zm-.984.408l-2.144.888 2.144.888v-1.776zM2.4 12.8H8v1.064l-3.4 2.792H8v1.28H2.4v-1.072l3.4-2.784H2.4V12.8zm3.616-5.613H8v1.296H6l-3.6 2.168V9.275L4.888 7.78 2.4 6.283V5.011l3.616 2.176z" fill="#828282"/><path opacity=".16" fill="#828282" d="M5 155V98h1v57z"/></svg>